<?xml version="1.0" encoding="UTF-8" standalone="no"?>
<!-- Created with Inkscape (http://www.inkscape.org/) -->

<svg class="paper-svg"
   version="1.1"
   id="svg4994"
   width="830.30206"
   height="739.13116"
   viewBox="0 0 830.30206 739.13116"
   sodipodi:docname="paper.svg"
   inkscape:version="1.1.2 (b8e25be8, 2022-02-05)"
   xmlns:inkscape="http://www.inkscape.org/namespaces/inkscape"
   xmlns:sodipodi="http://sodipodi.sourceforge.net/DTD/sodipodi-0.dtd"
   xmlns="http://www.w3.org/2000/svg"
   xmlns:svg="http://www.w3.org/2000/svg">
  <defs
     id="defs4998" />
  <sodipodi:namedview
     id="namedview4996"
     pagecolor="#ffffff"
     bordercolor="#666666"
     borderopacity="1.0"
     inkscape:pageshadow="2"
     inkscape:pageopacity="0.0"
     inkscape:pagecheckerboard="0"
     showgrid="false"
     fit-margin-top="0.3"
     fit-margin-left="0"
     fit-margin-right="0"
     fit-margin-bottom="0"
     inkscape:zoom="0.40588235"
     inkscape:cx="60.362319"
     inkscape:cy="-59.130435"
     inkscape:window-width="1512"
     inkscape:window-height="916"
     inkscape:window-x="702"
     inkscape:window-y="1118"
     inkscape:window-maximized="0"
     inkscape:current-layer="g5000" />
  <g
     inkscape:groupmode="layer"
     inkscape:label="Image"
     id="g5000"
     transform="translate(-107.18657,-451.99203)">
    <path
       style="fill:#0b0b0b"
       d="m 258.55073,1189.2649 c -16.95729,-3.6431 -35.04866,-11.7486 -48.52356,-21.7401 -39.77411,-29.4921 -87.52911,-99.6285 -100.23654,-147.2146 -2.28249,-8.5473 -2.56246,-11.5158 -2.6011,-27.57832 -0.0374,-15.52902 0.25821,-19.09822 2.1531,-26 6.43827,-23.45017 19.20597,-37.9199 39.7081,-45.00147 5.91028,-2.04145 6.01044,-2.13918 6.69826,-6.53548 0.38405,-2.45468 1.18788,-11.33202 1.78631,-19.72743 1.10869,-15.55406 2.60119,-28.05216 7.90977,-66.23562 3.9772,-28.60719 5.41198,-45.11064 4.60773,-53 -0.55492,-5.4434 -1.85216,-8.77575 -7.98042,-20.5 -15.52148,-29.69488 -28.89686,-61.22082 -35.06324,-82.64451 -8.36759,-29.07124 -8.66704,-52.64324 -0.8644,-68.04102 3.42459,-6.7581 11.52821,-14.65638 18.48193,-18.01361 10.31846,-4.98172 34.3849,-8.80333 55.39783,-8.79684 34.20485,0.0106 61.05334,10.35112 81.19135,31.27045 26.76363,27.80201 39.53199,67.40869 42.60152,132.14736 0.12835,2.70701 0.71372,5.07963 1.30083,5.27249 2.86683,0.94174 47.46795,-39.46322 72.1032,-65.31959 35.66101,-37.42864 60.01055,-66.44204 114.14381,-136.00667 40.07463,-51.4984 47.21187,-59.4376 64.56223,-71.81666 28.48183,-20.32109 67.19429,-26.90521 99.08205,-16.85165 32.90284,10.3736 53.54124,34.65206 53.54124,62.9845 0,14.92194 -6.02162,30.12586 -17.56993,44.36208 -28.05032,34.57916 -34.67553,43.65462 -65.27518,89.41638 -12.85824,19.22949 -22.87075,35.132 -22.25003,35.33891 0.62072,0.20691 2.80856,-0.62394 4.86186,-1.84632 18.42359,-10.96807 48.24024,-28.1528 69.73328,-40.19056 14.3,-8.0091 33.3999,-18.88362 42.44422,-24.16559 17.56739,-10.25952 26.95186,-14.35746 40.84838,-17.83735 7.23495,-1.81174 11.58216,-2.18155 25.7074,-2.18688 15.08352,-0.006 18.18371,0.29184 27.5,2.63929 23.90164,6.02256 41.82942,16.20413 56.68415,32.19216 26.48349,28.50395 26.42354,63.3556 -0.15511,90.17561 -7.76828,7.83882 -13.30899,11.7192 -40.52904,28.38414 -21.60566,13.22763 -65.65248,42.15796 -85,55.82871 -21.02944,14.85919 -48,35.23982 -48,36.27178 0,1.4185 2.38709,1.18594 21.68225,-2.11239 28.28955,-4.83584 65.73597,-12.54705 86.59502,-17.83219 22.65967,-5.74138 29.18819,-6.52494 42.23931,-5.06966 21.92101,2.44434 39.91441,10.3784 53.10848,23.41781 8.6329,8.5317 12.38807,14.64338 14.88327,24.22312 2.99876,11.51301 1.35099,22.07784 -5.61804,36.02053 -8.50774,17.02116 -14.15424,20.28123 -101.52448,58.61629 -71.76336,31.4873 -105.0782,47.0021 -132.81165,61.8506 -38.43057,20.5758 -53.54471,30.6055 -76.71223,50.9058 -55.73364,48.8361 -127.25025,81.5734 -195.3358,89.4166 -26.0854,3.0049 -63.72055,1.5477 -89.5515,-3.4673 -5.75004,-1.1164 -11.02272,-2.0312 -11.71705,-2.0328 -0.69433,0 -2.90957,2.5718 -4.92275,5.719 -12.568,19.6469 -32.95947,26.9733 -59.31483,21.311 z m 26.41022,-22.6572 c 5.13636,-1.7501 12.58978,-8.0628 12.58978,-10.6629 0,-0.9447 -3.47273,-3.6406 -8.50475,-6.6023 -12.69747,-7.4733 -22.50519,-15.2207 -36.85207,-29.1107 -37.59087,-36.3935 -73.1089,-88.2617 -86.55447,-126.39837 -3.55553,-10.08483 -7.59169,-29.29708 -8.59618,-40.91807 -0.45584,-5.2736 -1.12983,-7.9908 -2.07174,-8.35225 -0.76786,-0.29466 -3.36495,0.61808 -5.7713,2.02829 -12.21415,7.15797 -19.6017,24.15082 -19.62457,45.14048 -0.019,17.40982 3.65729,30.89982 14.57972,53.49992 16.31018,33.7483 39.64904,66.4559 64.64523,90.5953 17.47442,16.8754 30.63575,24.5679 51.25013,29.9546 10.67957,2.7907 18.39357,3.0465 24.91022,0.826 z m 136.88929,-21.8717 c 35.73933,-4.1806 68.07716,-14.1779 105.20049,-32.5229 30.19829,-14.9228 51.76224,-29.3317 78.23998,-52.2793 27.12534,-23.5089 50.93376,-38.527 99.96627,-63.05779 30.26727,-15.14264 47.33387,-22.96181 115.29375,-52.82256 48.26392,-21.20658 73.4238,-32.95993 81.09921,-37.88523 3.64476,-2.33884 5.53983,-4.62127 8.48857,-10.2237 3.24514,-6.16557 3.801,-8.15626 3.82899,-13.71264 0.0411,-8.15236 -2.0783,-12.77314 -8.96838,-19.55349 -10.13173,-9.97037 -28.24799,-16.5432 -45.94839,-16.67071 -8.67059,-0.0625 -12.06058,0.47459 -25.5,4.03982 -35.41203,9.39417 -100.07974,21.57146 -128.5,24.19727 -23.07125,2.13161 -23.09932,2.1469 -52.83335,28.78631 -14.71771,13.18594 -44.31438,39.16548 -49.63017,43.56466 -2.04243,1.69026 -3.61517,2.40008 -3.83781,1.73214 -0.59696,-1.79086 12.20054,-23.08479 21.66692,-36.05188 18.70879,-25.62742 40.82553,-48.92451 65.63441,-69.13725 45.13336,-36.77187 102.9765,-76.67856 171.43998,-118.27854 11.29202,-6.86129 23.16831,-18.48031 26.7866,-26.20633 2.42102,-5.16954 2.77342,-7.12909 2.77342,-15.422 0,-8.30742 -0.35042,-10.24835 -2.79142,-15.46132 -7.05819,-15.07336 -20.9947,-27.1417 -40.70858,-35.25164 -12.57829,-5.17448 -21.68559,-6.79266 -37.5,-6.66299 -21.97278,0.18018 -29.68,2.7684 -58.93962,19.79302 -8.83321,5.13957 -29.11038,16.65921 -45.06038,25.59919 -47.65286,26.70945 -102.74337,60.34269 -114.37895,69.82935 -8.27329,6.74534 -34.31192,39.07518 -57.6445,71.57204 -7.07563,9.85471 -13.05152,17.35745 -13.27975,16.67276 -0.63884,-1.91652 6.38133,-21.05727 13.3165,-36.30791 8.14852,-17.91885 17.69831,-34.68002 29.70993,-52.14492 12.6717,-18.42466 31.09733,-45.98731 59.2542,-88.63758 31.93356,-48.37095 47.91582,-70.75654 66.16215,-92.67014 16.81728,-20.19733 21.1857,-29.45989 20.12514,-42.67224 -1.36688,-17.02842 -18.31229,-33.12289 -41.26472,-39.19256 -24.46894,-6.4707 -55.2046,0.20304 -77.5,16.82783 -12.83262,9.56877 -21.03474,18.98913 -58.51589,67.20711 -9.8332,12.65 -23.94888,30.65 -31.3682,40 -61.99915,78.13284 -114.67243,132.17098 -169.87926,174.28114 -10.3586,7.90123 -13.38425,9.01968 -18.55528,6.85909 -6.51337,-2.72146 -6.90125,-4.20071 -7.32004,-27.91606 -1.4294,-80.94501 -19.02205,-125.58922 -56.86133,-144.29486 -15.04179,-7.43583 -21.77744,-8.77657 -44.5,-8.85775 -16.61151,-0.0593 -21.19461,0.27334 -30.94015,2.24596 -12.84111,2.59921 -14.21275,3.14716 -18.83725,7.5252 -4.22387,3.99875 -6.22349,10.77907 -6.21941,21.08878 0.009,23.82857 9.95137,53.65484 34.02499,102.07655 12.61926,25.38239 14.03039,28.75726 15.05262,36 1.45961,10.34164 0.56626,25.1025 -3.20716,52.99195 -6.98986,51.66214 -8.87342,68.17551 -9.78265,85.76555 -1.61828,31.30754 0.93906,57.17533 7.58613,76.73445 4.23872,12.47248 17.1059,36.47962 29.47848,54.99992 31.81516,47.6237 68.71159,83.9495 95.41681,93.9412 7.11124,2.6607 32.07953,7.753 46.42759,9.469 15.80993,1.8908 47.5364,1.9379 63.29951,0.094 z m -116.59226,-56.5198 c -5.21001,-4.0982 -5.64477,-13.016 -0.84627,-17.3586 0.98213,-0.8888 9.62769,-4.1433 19.21236,-7.2322 24.04369,-7.7486 34.09795,-11.857 58.65068,-23.9659 11.6732,-5.757 22.52338,-10.7271 24.1115,-11.0448 3.38764,-0.6775 8.31754,1.5699 10.60378,4.8339 2.31386,3.3035 1.99675,9.9592 -0.63384,13.3034 -2.74552,3.4904 -44.99009,24.3386 -62.47369,30.8316 -17.77037,6.5995 -38.00499,12.6482 -42.31153,12.6482 -2.24603,0 -4.77844,-0.8085 -6.31299,-2.0156 z m -37.63033,-40.0613 c -3.76757,-3.7676 -4.4644,-8.7372 -1.91478,-13.6558 0.63656,-1.2281 7.49798,-6.1406 15.24762,-10.9168 23.72504,-14.6222 45.32088,-29.53044 76.6922,-52.94299 28.25189,-21.0845 30.27851,-22.40743 34.32643,-22.40743 10.31195,0 15.29568,12.24579 7.80916,19.1883 -3.63347,3.36944 -43.22641,32.94202 -60.23755,44.99232 -16.63935,11.787 -33.89612,23.0814 -48.92661,32.0223 -13.73849,8.1723 -17.87514,8.8414 -22.99647,3.7201 z m -38.57692,-45.09 c -6.25369,-3.45879 -8.80993,-9.25636 -6.51943,-14.78612 0.68447,-1.65244 5.61721,-6.52077 11.36442,-11.216 15.08237,-12.32169 26.08851,-22.33755 46.37462,-42.20205 17.03129,-16.67733 18.53843,-17.90361 22.56146,-18.35706 3.6095,-0.40685 4.8215,-0.0564 7.44822,2.15387 4.32075,3.63568 5.79771,8.39109 3.95642,12.73859 -1.94166,4.58445 -40.57398,42.33335 -59.50435,58.14362 -17.88948,14.94095 -20.56953,16.35235 -25.68136,13.52515 z"
       id="path5102" />
  </g>
</svg>
