<?xml version="1.0" encoding="UTF-8" standalone="no"?>
<!-- Created with Inkscape (http://www.inkscape.org/) -->

<svg
   version="1.1"
   id="svg41"
   width="1000"
   height="1000"
   viewBox="0 0 1000 1000"
   sodipodi:docname="rock_computer.svg"
   inkscape:version="1.1.2 (b8e25be8, 2022-02-05)"
   xmlns:inkscape="http://www.inkscape.org/namespaces/inkscape"
   xmlns:sodipodi="http://sodipodi.sourceforge.net/DTD/sodipodi-0.dtd"
   xmlns="http://www.w3.org/2000/svg"
   xmlns:svg="http://www.w3.org/2000/svg">
  <defs
     id="defs45" />
  <sodipodi:namedview
     id="namedview43"
     pagecolor="#ffffff"
     bordercolor="#666666"
     borderopacity="1.0"
     inkscape:pageshadow="2"
     inkscape:pageopacity="0.0"
     inkscape:pagecheckerboard="0"
     showgrid="false"
     inkscape:zoom="0.36261503"
     inkscape:cx="177.87459"
     inkscape:cy="239.92387"
     inkscape:window-width="1512"
     inkscape:window-height="916"
     inkscape:window-x="702"
     inkscape:window-y="1118"
     inkscape:window-maximized="1"
     inkscape:current-layer="g47"
     units="mm"
     width="851px" />
  <g
     inkscape:groupmode="layer"
     inkscape:label="Image"
     id="g47">
    <path class="rock-computer-svg"
       style="fill:#000000;stroke-width:0.887103"
       d="m 677.84124,808.65239 c 10.87597,-1.48589 22.74493,-5.57515 36.29854,-12.50615 11.63137,-5.94799 18.9319,-10.84313 28.18761,-18.90037 40.47661,-35.23516 86.88102,-122.6201 94.01136,-177.03438 2.12364,-16.20635 -0.88116,-41.19422 -6.78454,-56.41996 -8.66101,-22.33811 -26.20984,-38.45869 -46.62019,-42.82581 l -7.03734,-1.50572 -0.57589,-4.94905 c -1.08157,-9.29483 -5.76041,-31.72766 -9.29348,-44.55779 -6.69039,-24.29581 -14.86827,-45.50522 -27.05053,-70.15564 -18.8733,-38.1896 -39.48156,-67.51254 -66.29816,-94.334 -25.47806,-25.48258 -50.45117,-41.14368 -79.67709,-49.96694 -32.58363,-9.83696 -64.86436,-8.39254 -97.64286,4.36907 -10.57995,4.11907 -20.96238,9.14366 -33.81204,16.36335 l -7.99261,4.49071 -3.54978,-4.19526 c -19.29681,-22.80558 -45.68043,-38.11048 -71.97493,-41.75202 -46.4704,-6.43569 -89.78546,19.80377 -104.37339,63.22747 -3.69397,10.99582 -4.9831,19.78529 -5.00884,34.15115 l -0.0247,13.79154 -11.11266,-0.0336 c -12.7561,-0.0381 -21.4424,1.73073 -33.60717,6.84389 -23.67732,9.95201 -46.7845,32.33633 -59.59296,57.72864 -9.09244,18.02543 -12.18424,31.05234 -12.06557,50.83684 0.0708,11.791 0.40594,14.92876 2.38361,22.31209 2.64993,9.89305 7.69983,21.12336 12.97949,28.86459 2.01761,2.95832 3.66837,5.5863 3.66837,5.84008 0,0.2537 -1.60772,2.93806 -3.57271,5.96525 -5.51418,8.49488 -9.68393,17.78635 -12.19072,27.16474 -1.97122,7.37466 -2.28643,10.38141 -2.28856,21.83063 -0.004,18.99606 3.07664,31.42891 12.71959,51.34141 19.58124,40.4349 67.29161,88.26907 128.01615,128.34821 41.57547,27.44048 81.78697,45.09405 131.12937,57.56806 26.93214,6.80858 49.6829,9.99006 76.89959,10.75364 41.13039,1.15403 69.80993,-3.27868 118.46093,-18.30906 2.21119,-0.68319 2.69303,-0.40179 5.04302,2.94496 11.97193,17.04978 31.56382,25.54881 52.3491,22.7091 z m -20.96785,-27.31815 c -4.28222,-2.17519 -9.97614,-7.35253 -9.97614,-9.07105 0,-0.68072 2.11523,-2.49749 4.70052,-4.03712 7.10339,-4.23053 22.59264,-18.21956 32.96528,-29.77244 39.40316,-43.88681 79.33905,-117.38885 88.94796,-163.70889 2.20626,-10.63529 4.0711,-28.44208 4.0711,-38.87368 0,-5.4406 0.38325,-9.70485 0.90082,-10.02335 1.16421,-0.71648 9.70912,3.18113 13.82163,6.30446 3.67619,2.79191 10.16735,11.54571 12.39676,16.71792 3.17572,7.36758 5.8541,18.97295 6.84382,29.65408 0.8901,9.60616 0.81912,12.40126 -0.53851,21.20126 -8.11168,52.57892 -54.64515,136.11502 -91.38883,164.05979 -7.10935,5.40687 -24.50471,14.41277 -33.60399,17.39739 -11.29996,3.70641 -22.0325,3.76226 -29.14042,0.15163 z m -180.66656,-6.66066 c -60.29302,-7.28145 -120.92551,-30.12572 -172.42235,-64.96281 -33.44012,-22.62191 -70.46057,-54.62142 -89.43843,-77.3083 -34.14283,-40.81571 -44.61142,-77.50853 -30.27209,-106.1049 3.61175,-7.20276 5.20891,-9.73716 6.13627,-9.73716 0.39974,0 6.0043,4.49564 12.45458,9.99033 9.98027,8.5016 25.48039,20.70245 32.30199,25.42621 20.7895,14.39622 37.67437,23.99334 50.75469,28.84847 l 6.01521,2.23273 -49.95694,-49.61448 c -27.47632,-27.28787 -51.12643,-51.3121 -52.55581,-53.38709 -4.17466,-6.06015 -8.00212,-14.23441 -10.13927,-21.6543 -3.84803,-13.35992 -2.23577,-34.71636 3.63981,-48.21401 6.38914,-14.67745 9.97304,-20.32863 19.85256,-31.3041 22.63891,-25.15038 50.89506,-34.47637 72.39731,-23.895 5.60879,2.76013 7.55326,4.40704 13.98433,11.84464 15.64024,18.08802 38.32674,39.09631 55.22976,51.14428 6.07692,4.33135 19.56758,12.49101 31.95435,19.32703 l 6.17298,3.40677 -6.56438,-7.44212 c -3.6104,-4.09315 -7.01408,-7.84036 -7.56371,-8.32722 -0.54964,-0.48686 -3.768,-4.07191 -7.15192,-7.96677 -3.38393,-3.89487 -8.35888,-9.4848 -11.05545,-12.42214 -5.57652,-6.0744 -27.26535,-32.65225 -37.93162,-46.48204 -8.84651,-11.47029 -12.75571,-18.1128 -15.93406,-27.07489 -2.22402,-6.27117 -2.46812,-8.11539 -2.44518,-18.47414 0.0165,-7.40892 0.55976,-13.94831 1.52555,-18.36031 6.17578,-28.21263 26.28943,-48.1025 54.55444,-53.94755 30.74022,-6.3569 62.97723,8.0092 85.26213,37.99622 6.48646,8.7283 15.24505,16.64028 33.63864,30.38721 24.29734,18.1591 49.05516,30.16989 72.01002,34.9342 9.60909,1.99435 27.72478,2.77261 45.16271,1.94035 7.92063,-0.37807 21.00206,-0.98009 29.06985,-1.33771 l 14.66871,-0.65027 -12.89069,-2.02931 c -51.9998,-8.18586 -66.49533,-12.05983 -92.01281,-24.59103 -16.01855,-7.86639 -30.60802,-17.56009 -47.86244,-31.80131 -7.13452,-5.88859 -7.94948,-4.60161 8.30632,-13.11711 23.59009,-12.35745 43.14346,-17.68376 64.89299,-17.67674 22.17183,0.007 40.19843,4.58009 61.34187,15.56103 44.92637,23.33272 91.16175,81.77943 117.80276,148.91593 14.58521,36.75532 22.29805,71.53673 23.2882,105.01929 0.77289,26.13561 -1.69803,44.62127 -8.7824,65.70382 -3.14149,9.34883 -5.33596,14.80836 -11.61171,28.88875 -3.37657,7.57569 -13.81486,27.91379 -18.35146,35.75619 -2.5047,4.32985 -4.554,8.01041 -4.554,8.17904 0,0.3608 -6.19265,10.07088 -13.19143,20.68412 -19.07649,28.92832 -42.08459,54.33532 -59.11523,65.27901 -18.437,11.84739 -64.67031,24.37371 -101.93982,27.61947 -12.67507,1.10384 -45.07733,0.43994 -58.67483,-1.20228 z M 629.20779,702.2128 c 7.64657,-5.08634 7.82591,-15.76969 0.34663,-20.64925 -1.21267,-0.79119 -8.10806,-2.54742 -15.32308,-3.90275 -30.06757,-5.64835 -46.94846,-10.30227 -74.46011,-20.52797 -27.45789,-10.2057 -29.27888,-10.44886 -34.77798,-4.64312 -4.89932,5.17255 -4.66605,12.95122 0.52877,17.63232 2.71569,2.44712 43.53512,17.11474 61.3641,22.04998 14.94125,4.13591 23.57762,6.1345 40.38184,9.34529 16.94524,3.23778 18.06452,3.27319 21.93983,0.6955 z m 34.35291,-46.362 c 3.85163,-1.89061 6.45088,-6.26808 6.45088,-10.86402 0,-7.03625 -2.26966,-9.36901 -14.2242,-14.61956 -18.38384,-8.07441 -61.11207,-29.92673 -73.10363,-37.38716 -1.82387,-1.13474 -3.49957,-2.06313 -3.72378,-2.06313 -0.22421,0 -8.73335,-4.91293 -18.90919,-10.91758 -10.17583,-6.00464 -20.30178,-11.91819 -22.50208,-13.14118 -2.20031,-1.22299 -6.32162,-3.52981 -9.15847,-5.12635 -4.2716,-2.40393 -5.78601,-2.81891 -8.81316,-2.41464 -4.50095,0.60113 -7.7675,2.8914 -9.80864,6.87718 -4.43094,8.65226 -1.02394,13.06019 18.41177,23.82055 2.91512,1.61389 7.31573,4.20194 9.77914,5.75121 2.46341,1.54928 5.07901,3.0812 5.81245,3.40421 0.73343,0.323 1.9336,0.98345 2.66703,1.46765 2.56969,1.69657 24.18727,14.17926 24.5556,14.17926 0.20465,0 1.86435,0.92839 3.68822,2.06313 9.39349,5.84407 39.83041,21.56737 61.99097,32.02385 19.11196,9.01785 21.44137,9.61969 26.88709,6.94658 z m 37.42529,-56.08686 c 4.47358,-1.03869 8.85231,-5.72731 9.52591,-10.19986 1.04076,-6.91055 -1.84754,-10.12753 -18.25662,-20.33447 -5.47885,-3.40801 -11.30838,-7.19222 -12.95451,-8.40937 -1.64612,-1.21714 -4.3096,-3.132 -5.91882,-4.25523 -4.53519,-3.16555 -24.47814,-18.17627 -31.06403,-23.38132 -25.37513,-20.05484 -24.20863,-19.26816 -28.58054,-19.27418 -6.01098,-0.009 -10.23218,3.16484 -12.16035,9.14107 -0.92463,2.86582 -0.86309,3.99498 0.39669,7.2795 1.51907,3.96064 2.43787,4.76475 30.11163,26.35373 13.5517,10.57208 26.83293,20.16734 40.92081,29.56397 20.54229,13.70187 22.69718,14.74278 27.97983,13.51616 z"
       id="path244" />
    <path class="rock-computer-svg"
       style="fill:#ffffff;stroke-width:2.75775"
       d="m 671.05528,582.35957 c -33.8494,-23.0981 -63.96012,-47.00432 -66.81169,-53.04474 -2.76969,-5.86695 2.00063,-13.6164 8.38183,-13.6164 2.12694,0 19.65904,11.6882 38.9602,25.97378 19.30117,14.28558 39.96322,29.48765 45.91567,33.78238 5.95244,4.29473 11.28203,9.2158 11.84353,10.93569 1.23239,3.77489 -6.53528,12.04052 -11.31515,12.04052 -1.88244,0 -14.02091,-7.23205 -26.97439,-16.07123 z"
       id="path2876" />
    <path class="rock-computer-svg"
       style="fill:#ffffff;stroke-width:2.75775"
       d="m 622.93791,640.13103 c -27.72362,-13.71147 -83.11427,-44.4727 -105.11792,-58.37729 -8.5143,-5.38038 -9.96857,-10.79232 -4.51838,-16.81471 2.54679,-2.81417 5.43967,-5.11667 6.42863,-5.11667 0.98895,0 17.23968,8.91773 36.11271,19.81718 18.87304,10.89945 51.67278,28.59063 72.88833,39.31373 22.57535,11.41039 38.9312,21.35274 39.43563,23.97202 0.85137,4.42082 -6.03148,13.41816 -10.26472,13.41816 -1.20116,0 -16.93508,-7.29558 -34.96428,-16.21242 z"
       id="path2915" />
    <path class="rock-computer-svg"
       style="fill:#ffffff;stroke-width:2.75775"
       d="m 594.29556,697.52389 c -24.90794,-5.66933 -59.81741,-16.66955 -79.48033,-25.04481 -9.46729,-4.03252 -11.73279,-6.29432 -11.03098,-11.01298 1.77262,-11.9183 8.25966,-12.32406 37.19231,-2.32635 14.91547,5.15406 40.67452,12.5913 57.24234,16.52721 31.72747,7.53729 38.8013,12.11328 33.0091,21.35324 -4.14475,6.61187 -9.76,6.68845 -36.93244,0.50369 z"
       id="path2954" />
    <path class="rock-computer-svg"
       style="fill:#ffffff;stroke-width:2.75775"
       d=""
       id="path2993" />
    <path class="rock-computer-svg"
       style="fill:#ffffff;stroke-width:2.75775"
       d=""
       id="path3032" />
    <path class="rock-computer-svg"
       style="fill:#ffffff;stroke-width:2.75775"
       d=""
       id="path3071" />
    <path class="rock-computer-svg"
       style="fill:#ffffff;stroke-width:2.75775;stroke:#000000"
       d="m 652.78996,805.05991 c -4.98796,-1.5228 -13.67486,-7.51117 -19.30422,-13.30751 l -10.23523,-10.53875 -31.71408,8.41529 c -29.29343,7.77295 -35.29241,8.42375 -78.59575,8.52656 -51.49544,0.12217 -72.38969,-3.11062 -117.91894,-18.24505 -33.2647,-11.05754 -59.12992,-23.03696 -86.76183,-40.18358 -73.67342,-45.71708 -129.37065,-103.15005 -146.87155,-151.44858 -8.70152,-24.01425 -7.32155,-54.38062 3.41132,-75.06608 l 7.60818,-14.66324 -8.4493,-17.16298 c -15.93899,-32.37669 -13.07209,-67.26027 8.23741,-100.2302 20.22345,-31.28961 49.41846,-50.58879 79.44832,-52.51883 l 17.23591,-1.10776 v -8.82436 c 0,-16.61297 5.99182,-41.54916 13.16729,-54.79838 20.00745,-36.94295 66.57886,-56.426 106.99288,-44.76025 20.89382,6.03113 32.22092,12.79079 49.7519,29.69039 l 14.09941,13.59164 22.00452,-11.06366 c 31.95378,-16.06605 51.85307,-20.58545 83.54729,-18.97472 17.34917,0.8817 31.40222,3.32035 41.60387,7.21959 77.43024,29.5951 148.84899,129.04779 169.95344,236.66516 l 4.87238,24.84569 11.71915,3.13439 c 28.12691,7.5228 45.07943,35.23098 47.06716,76.92917 1.0528,22.08565 0.21483,28.72898 -6.2616,49.63942 -15.30344,49.4103 -50.88586,110.6116 -81.02055,139.35426 -28.43222,27.11887 -69.22024,42.32158 -93.58738,34.88237 z m 50.28824,-29.8553 c 36.31143,-17.87604 79.2747,-78.79635 100.64351,-142.70876 16.67482,-49.87303 7.22088,-98.45596 -20.8003,-106.89085 -5.4859,-1.65137 -5.89156,-0.47249 -7.63289,22.18129 -2.3234,30.22668 -13.67439,64.77026 -33.80394,102.8729 -22.27269,42.15934 -40.35961,67.3078 -69.16512,96.16868 -14.09547,14.12256 -25.62812,26.80303 -25.62812,28.17881 0,1.37579 3.41271,4.42296 7.58381,6.77148 10.7185,6.03502 27.88946,3.72219 48.80305,-6.57355 z m -141.33088,-1.73388 c 27.86572,-4.87443 63.21133,-15.89771 75.6756,-23.60106 12.81116,-7.91774 42.81353,-40.71914 58.48001,-63.93585 33.24159,-49.26192 54.24458,-100.83212 57.30708,-140.71044 7.12298,-92.75099 -54.7172,-221.4165 -129.76059,-269.98169 -34.20536,-22.1364 -78.4931,-27.84583 -115.28126,-14.86168 -20.32586,7.17388 -35.68214,15.29321 -36.98761,19.55645 -1.39384,4.55184 31.99951,27.84621 56.92773,39.71137 14.77256,7.03133 32.87057,12.96485 48.94075,16.04547 14.02496,2.68856 25.50407,5.81902 25.50915,6.95659 0.0165,3.64518 -47.64693,2.12929 -65.51555,-2.08367 -34.30828,-8.08899 -70.46886,-31.61774 -107.9849,-70.26298 -16.78959,-17.29492 -24.05731,-22.68363 -36.87187,-27.33894 -18.82025,-6.83708 -31.82688,-7.28619 -50.41431,-1.74077 -30.47628,9.09237 -47.99748,34.56537 -48.0447,69.84924 -0.0177,13.18831 1.52092,23.17426 4.46141,28.95633 5.12165,10.07102 40.32502,54.76782 58.56989,74.36467 6.72933,7.22799 11.67055,13.70639 10.98049,14.39644 -3.13134,3.13135 -38.86818,-24.14609 -61.56809,-46.99409 -13.76844,-13.85826 -27.70973,-26.62909 -30.98064,-28.37963 -18.28576,-9.78624 -51.96348,1.06047 -72.51361,23.35473 -23.00209,24.95433 -31.83741,56.61417 -23.65459,84.76211 4.22088,14.51931 8.10876,19.32288 51.70973,63.88874 25.93013,26.50395 46.20318,48.18902 45.05122,48.18902 -5.06271,0 -34.44752,-18.95079 -58.3184,-37.61061 -14.28448,-11.16614 -27.03958,-20.30205 -28.34467,-20.30205 -4.80929,0 -11.24319,22.64832 -11.17954,39.35369 0.11875,31.16829 15.99578,59.96693 53.80992,97.60346 93.15361,92.71601 221.66494,139.76522 329.99735,120.81515 z"
       id="path3110" />
    <path class="rock-computer-svg"
       style="fill:#000000;stroke:#000000;stroke-width:2.75775"
       d="M 463.65731,770.7824 C 362.55669,754.25694 248.3714,684.06539 199.44509,608.36687 181.11936,580.01341 176.03951,548.56268 186.19475,526.33045 l 3.33145,-7.29333 30.17989,22.84875 c 29.16393,22.07959 54.14934,37.18544 68.47833,41.40113 4.47802,1.31745 -11.72773,-16.85799 -46.23869,-51.85869 -33.32928,-33.80226 -54.81735,-57.82565 -57.652,-64.45423 -2.49837,-5.84221 -4.55844,-18.14819 -4.60725,-27.52176 -0.21782,-41.82554 40.78229,-86.46088 79.41925,-86.46088 11.08668,0 17.32645,4.38742 45.62516,32.08085 12.89246,12.6167 27.78429,26.16138 33.09295,30.0993 14.51194,10.76483 41.86982,26.48331 43.41121,24.94193 0.74594,-0.74594 -9.78075,-14.13839 -23.39263,-29.76101 -34.86518,-40.01538 -54.90798,-66.77535 -58.76341,-78.45743 -4.48897,-13.6017 -1.91379,-41.29058 5.12302,-55.08386 16.6441,-32.62513 58.52199,-45.45557 92.23272,-28.25802 6.44138,3.28607 23.51953,17.41524 37.95144,31.39816 30.09205,29.15586 61.11095,50.50503 86.06789,59.23739 20.29268,7.10035 59.2952,9.80269 90.38657,6.26255 l 20.68309,-2.35502 -26.19858,-4.8118 c -35.3781,-6.49776 -60.98677,-14.32407 -82.61359,-25.24766 -18.76136,-9.47628 -46.8857,-28.8751 -46.95856,-32.38975 -0.0731,-3.5307 26.97682,-15.87427 44.8138,-20.44962 21.66827,-5.55811 52.6032,-3.74906 74.0177,4.32851 69.358,26.1619 136.18134,126.74498 153.07143,230.40445 7.76849,47.6776 1.12549,84.10282 -25.16255,137.97221 -25.93795,53.15204 -70.67614,108.00308 -97.50377,119.54402 -43.52773,18.72512 -111.61117,26.46294 -161.33231,18.33576 z m 166.66886,-67.65429 c 6.10956,-3.26975 7.31649,-16.91788 1.88701,-21.33852 -1.89595,-1.54368 -13.99556,-4.92727 -26.88802,-7.51911 -12.89246,-2.59184 -38.00673,-9.63556 -55.80946,-15.65271 -33.55917,-11.34269 -42.36372,-12.23538 -47.04102,-4.76947 -3.75326,5.99101 -0.3448,18.05096 5.60978,19.84868 2.67093,0.80637 15.91056,5.41398 29.42142,10.23918 21.61529,7.71956 73.8037,21.32035 83.85761,21.85409 1.99567,0.10589 6.02888,-1.09202 8.96268,-2.66214 z m 37.001,-48.51023 c 2.48015,-2.48013 4.10838,-7.71692 3.64417,-11.72042 -0.72366,-6.24111 -5.01403,-9.2564 -31.17436,-21.90966 -16.68436,-8.0699 -49.81189,-25.8594 -73.61672,-39.53225 -45.97215,-26.40511 -51.8879,-27.88561 -57.98185,-14.51085 -2.47268,5.42694 -2.08257,7.6878 2.12975,12.34235 10.83105,11.96815 135.85661,79.33066 147.88662,79.67979 2.546,0.0739 6.64658,-1.88312 9.11239,-4.34896 z m 41.23461,-58.74721 c 7.32171,-8.0904 3.19678,-15.43769 -15.87353,-28.2737 -9.37231,-6.3084 -29.81172,-21.18677 -45.42092,-33.06306 -30.7508,-23.39679 -39.86906,-26.40272 -45.12157,-14.87472 -1.68364,3.69518 -2.33513,8.61048 -1.44779,10.92287 3.84341,10.01575 87.18941,70.60648 97.12322,70.60648 3.26037,0 8.09365,-2.39303 10.74059,-5.31787 z"
       id="path3260" />
    <path class="rock-computer-svg"
       id="path3299"
       style="fill:#000000;stroke:#000000;stroke-width:2.75775"
       d="M 362.60742 243.0918 C 335.78826 243.51047 309.76923 261.87318 302.41602 286.41602 C 297.77263 301.91427 298.43055 326.9189 303.75391 337.27148 C 309.33593 348.12707 323.95606 367.26096 356.77148 406.6582 C 387.49313 443.54175 388.41132 446.0305 367.35938 435.3457 C 347.90614 425.47232 334.71702 415.36207 304.77539 387.37109 C 271.71963 356.46887 264.79521 352.64099 248.52734 356.2793 C 224.12376 361.73715 203.71071 379.07658 189.7793 406.17969 C 183.90978 417.59866 182.35129 424.56853 182.20117 440.05859 C 181.95661 465.29339 184.0068 468.35442 241.08398 527.96484 C 285.45373 574.30387 294.04273 584.64258 288.17188 584.64258 C 280.20254 584.64258 246.42813 563.92848 212.3457 538.13867 L 190.28516 521.44531 L 186.96094 528.91406 C 181.31667 541.59963 182.77813 567.66971 190.13672 585.56641 C 199.86059 609.21567 209.01494 621.52104 239.81055 652.33984 C 297.82373 710.39673 385.23617 755.82673 464.52344 769.12695 C 496.20663 774.44173 523.24771 774.22995 558.65625 768.39258 C 611.87203 759.61958 633.42272 749.63639 659.64062 721.60938 C 691.78755 687.2442 722.05204 636.45188 738.44141 589.36133 C 746.66473 565.73374 747.27721 561.45257 747.19531 528.10742 C 747.12112 497.85465 745.943 488.02726 739.65625 465.16992 C 713.98952 371.85135 660.54532 296.82851 599.81055 268.86133 C 583.34827 261.28078 579.40807 260.60742 551.54883 260.60742 C 526.52532 260.60742 518.31715 261.71746 504.66797 266.95117 C 495.56741 270.44074 485.7118 275.09468 482.76758 277.29297 C 477.46854 281.24945 477.46854 281.33158 482.76758 285.44336 C 514.05498 309.72082 553.71401 326.67805 599.92773 335.53711 C 621.71299 339.7133 624.39903 340.82453 620.17383 343.91406 C 613.15383 349.04722 553.70623 348.5534 530.86523 343.17188 C 501.27175 336.19941 475.32831 319.3734 427.46484 276.11719 C 398.76311 250.17825 389.109 244.84484 367.97656 243.25 C 366.1868 243.11493 364.39537 243.06389 362.60742 243.0918 z M 609.25391 512.72266 C 612.86958 512.21838 617.42423 513.30854 622.74219 516.08594 C 631.29077 520.55056 696.20165 567.63598 705.29297 575.9668 C 713.30783 583.3112 715.07613 592.37114 709.56836 597.87891 C 702.85877 604.5885 691.33278 601.13146 666.98633 585.10742 C 627.60735 559.18946 599.81055 535.60356 599.81055 528.10938 C 599.81055 518.83348 603.22779 513.56311 609.25391 512.72266 z M 784.22656 530.0332 C 780.57107 529.79631 779.27892 536.41288 777.97266 552.07617 C 773.23338 608.9043 727.42447 696.98366 675.12695 749.82617 C 662.52052 762.56397 652.20703 773.85361 652.20703 774.91406 C 652.20703 775.97451 654.9994 778.22942 658.41211 779.92578 C 673.78598 787.56771 706.17049 773.87054 730.68164 749.35938 C 770.97752 709.0635 809.39844 628.66496 809.39844 584.63867 C 809.39844 566.69589 802.84405 546.75247 793.87109 537.38672 C 789.46286 532.78551 786.41986 530.17534 784.22656 530.0332 z M 515.63867 557.36523 C 522.12758 556.54852 532.2603 561.19655 563.95898 578.52148 C 582.91848 588.88382 611.46073 604.06721 627.38672 612.26367 C 667.27047 632.79018 671.51172 635.932 671.51172 644.94922 C 671.51172 649.09287 670.02128 653.9709 668.20117 655.79102 C 666.38106 657.61113 661.48541 659.10156 657.32227 659.10156 C 643.77051 659.10156 514.82226 589.66607 507.85156 578.61523 C 504.46648 573.24877 507.78892 560.03826 513.0293 558.02734 C 513.85983 557.70864 514.71168 557.48191 515.63867 557.36523 z M 510.72461 648.5957 C 515.57325 648.12641 532.32746 651.73411 547.95508 656.61328 C 563.58267 661.49245 589.39824 668.7025 605.32422 672.63477 L 634.28125 679.78516 L 635.1582 688.92773 C 635.64089 693.95629 634.55987 699.85129 632.75391 702.02734 C 630.80611 704.37429 624.83809 705.89724 618.08594 705.77148 C 599.77347 705.43027 513.57229 680.05511 503.83789 672.14062 C 501.76453 670.4549 500.60092 665.05403 501.08008 659.33789 C 501.82594 650.43991 502.79165 649.36346 510.72461 648.5957 z " />
  </g>
</svg>
