<?xml version="1.0" encoding="UTF-8" standalone="no"?>
<!-- Created with Inkscape (http://www.inkscape.org/) -->

<svg
   version="1.1"
   id="svg3475"
   width="766.83301"
   height="668.25543"
   viewBox="0 0 766.833 668.25543"
   sodipodi:docname="rock.svg"
   inkscape:version="1.1.2 (b8e25be8, 2022-02-05)"
   xmlns:inkscape="http://www.inkscape.org/namespaces/inkscape"
   xmlns:sodipodi="http://sodipodi.sourceforge.net/DTD/sodipodi-0.dtd"
   xmlns="http://www.w3.org/2000/svg"
   xmlns:svg="http://www.w3.org/2000/svg">
  <defs
     id="defs3479" />
  <sodipodi:namedview
     id="namedview3477"
     pagecolor="#ffffff"
     bordercolor="#666666"
     borderopacity="1.0"
     inkscape:pageshadow="2"
     inkscape:pageopacity="0.0"
     inkscape:pagecheckerboard="0"
     showgrid="false"
     fit-margin-top="0"
     fit-margin-left="0"
     fit-margin-right="0"
     fit-margin-bottom="0"
     inkscape:zoom="0.81176471"
     inkscape:cx="355.39855"
     inkscape:cy="312.89855"
     inkscape:window-width="1512"
     inkscape:window-height="916"
     inkscape:window-x="702"
     inkscape:window-y="1118"
     inkscape:window-maximized="0"
     inkscape:current-layer="g3481" />
  <g
     inkscape:groupmode="layer"
     inkscape:label="Image"
     id="g3481"
     transform="translate(145.90504,-416.80878)">
    <path
       style="fill:#d0d0d0"
       d="m 20.58071,1085.8203 c -17.59017,-4.5485 -38.58721,-14.762 -53.68329,-26.113 -9.14578,-6.8768 -26.30948,-24.0719 -34.89204,-34.9558 -36.62556,-46.44649 -70.13412,-115.82172 -79.4543,-164.50005 -2.34988,-12.27316 -2.40283,-35.62912 -0.11144,-49.15596 4.64884,-27.44368 16.48099,-49.48473 33.21611,-61.87532 8.89821,-6.58818 23.840929,-12.96872 30.371716,-12.96872 2.732991,0 3.441795,-1.98054 5.547199,-15.5 C -64.72468,632.7753 -12.02903,534.12168 50.10212,480.13011 65.5128,466.73833 77.9447,458.29673 94.72872,449.82744 c 27.92997,-14.0936 51.58145,-19.95178 80.3734,-19.90751 33.94422,0.0522 60.54282,8.37959 103.64003,32.44723 l 4.14002,2.312 9.73608,-10.23951 c 20.41443,-21.47001 44.25857,-35.00769 70.98387,-40.3016 10.11458,-2.00355 32.94372,-1.76347 43.5,0.45748 10.67219,2.24533 24.13321,7.52212 34.5,13.52417 11.04595,6.39526 29.13439,24.48254 35.89212,35.88981 10.69134,18.04733 15.78896,37.29003 15.98422,60.33786 l 0.12366,14.59592 11,0.0238 c 12.62839,0.0273 21.34784,1.6824 34.04553,6.46239 34.8828,13.13146 67.47247,48.37951 79.81167,86.32199 11.86278,36.47753 7.51547,69.03971 -13.55108,101.5 -1.57532,2.42733 -1.46581,2.76048 3.76752,11.46113 5.77548,9.602 10.57128,21.65571 13.13148,33.00451 2.17266,9.63088 2.08096,31.43857 -0.17675,42.03436 -9.80675,46.02466 -43.76483,92.84283 -103.02837,142.04572 -64.68687,53.70551 -129.7956,87.71201 -202.58515,105.81081 -35.7678,8.8935 -61.16668,12.052 -96.91485,12.052 -38.35147,0 -67.50938,-4.0347 -101.95861,-14.1086 -8.54777,-2.4996 -17.27101,-5.0438 -19.38498,-5.6539 -3.67412,-1.0603 -3.93509,-0.9777 -5.91851,1.8724 -7.69093,11.0516 -22.72144,21.6794 -35.2902,24.9532 -8.98586,2.3405 -24.97895,1.9391 -35.96911,-0.9027 z m 32.52141,-31.7333 c 4.69683,-2.0278 10,-6.4277 10,-8.2968 0,-0.5979 -3.72682,-3.8396 -8.28182,-7.2037 -33.91722,-25.0503 -71.65251,-75.18693 -102.23605,-135.83505 -25.11569,-49.80522 -35.341436,-85.7836 -35.45633,-124.75 -0.03019,-10.23884 -0.429805,-10.50696 -8.640702,-5.79755 -6.91213,3.9645 -12.789888,10.91109 -17.378118,20.5382 -8.96643,18.81357 -11.09949,43.11558 -5.90959,67.32812 10.94082,51.04241 52.21314,127.60518 87.5545,162.41918 10.86491,10.7027 17.96516,15.8323 31.34811,22.6474 22.80231,11.6119 36.87931,14.1831 49,8.9502 z m 206,-8.2115 c 74.29355,-9.2591 147.74233,-39.3395 210.82067,-86.34021 89.22314,-66.48161 131.67453,-129.55209 119.99905,-178.28384 -1.2965,-5.41138 -8.09794,-20.43588 -9.69908,-21.42544 -1.22723,-0.75847 -1.20966,-0.77141 -18.22891,13.43325 -29.12141,24.30542 -52.72642,40.22497 -77.1522,52.03255 -13.14128,6.35257 -19.75247,8.3103 -19.72312,5.84048 0.0157,-1.3245 79.03285,-81.57105 99.26494,-100.8094 14.76146,-14.03642 21.9758,-25.30105 26.34094,-41.12929 2.70854,-9.82134 2.46544,-29.83315 -0.49736,-40.94215 -7.55321,-28.32074 -29.37387,-56.11693 -54.08282,-68.89327 -19.15424,-9.90414 -34.89667,-11.32311 -50.07109,-4.51324 -5.2561,2.3588 -7.80019,4.61316 -18.41936,16.32166 -31.59074,34.83139 -53.01735,52.56621 -86.96692,71.98261 -23.52729,13.4557 -24.10987,12.53569 -5.33474,-8.42464 19.91592,-22.2339 34.90504,-39.61939 45.67146,-52.97312 26.56925,-32.9542 35.04913,-45.60995 38.50624,-57.46838 5.26816,-18.07065 1.41061,-45.1279 -8.99339,-63.08062 -5.59924,-9.6618 -19.10762,-22.55833 -28.9909,-27.67777 -13.11743,-6.79469 -21.57436,-8.76689 -37.44341,-8.73199 -10.88248,0.0239 -15.01012,0.46052 -21.2885,2.25173 -22.23471,6.3435 -41.02407,19.83544 -56.73667,40.74052 -3.76627,5.01089 -9.68885,11.5813 -13.1613,14.60092 -39.2147,34.10084 -72.11208,52.71547 -106.12512,60.04977 -8.86939,1.91252 -13.36026,2.20464 -34.68841,2.25638 -28.16272,0.0683 -67.27853,-1.37663 -69.18643,-2.55578 -0.95732,-0.59166 -1.00358,-1.09477 -0.17667,-1.92168 1.08664,-1.08664 4.81457,-1.77323 40.8631,-7.52597 40.43634,-6.45297 67.85058,-15.85638 95.91911,-32.9014 10.62027,-6.44931 28.99051,-19.81631 37.08089,-26.98169 3.86063,-3.41922 3.93252,-3.59501 2.06323,-5.04517 -3.91135,-3.03433 -30.33206,-15.46655 -39.22535,-18.45742 -16.56999,-5.57259 -27.1655,-7.34445 -44.33788,-7.41453 -17.17175,-0.0701 -26.59045,1.35776 -42.2699,6.40793 -12.51647,4.0314 -35.33326,15.56228 -45.89527,23.19401 -58.35473,42.16503 -111.00486,129.16916 -130.34285,215.39103 -4.61587,20.58067 -6.59446,36.649 -7.18747,58.37011 -1.03163,37.78706 3.26967,59.77914 18.82848,96.26789 27.82521,65.25612 74.3723,131.00232 109.06632,154.05256 20.66741,13.7311 71.62406,27.8409 114.30069,31.6495 13.55537,1.2098 53.36228,0.416 67.5,-1.3459 z M 86.10776,968.00145 c -8.1174,-4.1339 -10.86318,-13.32345 -6.50128,-21.75843 2.50745,-4.84887 7.13254,-6.7297 25.56207,-10.39505 35.18376,-6.9975 50.23375,-11.24829 83.86075,-23.68603 25.80955,-9.54627 27.43159,-9.88341 33.47517,-6.95776 11.92087,5.77079 12.12645,21.97362 0.35408,27.90826 -6.79888,3.42742 -49.071,18.56616 -62.87171,22.51597 -19.14828,5.48032 -61.2836,14.62304 -67.392,14.62304 -1.13792,0 -4.0571,-1.0125 -6.48708,-2.25 z M 48.10263,916.128 c -10.82905,-4.31813 -13.44071,-18.62069 -4.84552,-26.5361 1.28975,-1.18775 7.07001,-4.2686 12.84501,-6.84632 29.87309,-13.33413 65.91218,-32.50541 110,-58.51536 28.43662,-16.77641 38.33363,-21.97877 41.81258,-21.97877 5.11923,0 11.48101,4.09068 13.93742,8.96189 2.82973,5.61153 2.82973,8.46469 0,14.07622 -1.78302,3.53585 -3.70282,5.31604 -9.25,8.57738 -67.92608,39.93562 -80.82693,47.12933 -114.44896,63.81844 C 58.98589,917.127 54.63163,918.73146 48.10263,916.128 Z M 0,850 c -4.49003,-2.9751 -8.32816,-10.64967 -7.50481,-15.00631 1.26633,-6.70055 4.08365,-9.33066 24.80024,-23.15222 28.36565,-18.9248 28.28206,-18.86344 59.2494,-43.49501 7.66849,-6.09956 15.59398,-12.23443 17.6122,-13.63306 12.47096,-8.64238 28.62342,2.01643 24.75772,16.33729 -1.52818,5.66129 -2.17314,6.24409 -38.65865,34.93281 C 62.70728,819.78221 26.8464,844.63285 16.4146,850.22396 11.2466,852.99384 4.37684,852.90011 0,850 Z"
       id="path3634" />
    <path
       style="fill:#afafaf"
       d="m 31.40093,1087.2371 c -19.69252,-2.7113 -45.5287,-14.2093 -65.14914,-28.9938 -26.72998,-20.1416 -60.133395,-66.24175 -83.68359,-115.49185 -22.82394,-47.7313 -32.82796,-84.62496 -31.04331,-114.48409 2.51963,-42.15617 18.4127,-71.59475 45.93104,-85.07763 4.319597,-2.11643 11.160581,-4.58374 15.202186,-5.48291 l 7.348374,-1.63486 0.623937,-4.66025 C -70.69566,666.6253 -40.56788,592.85546 -0.16013,537.46222 c 13.49533,-18.50017 23.81729,-30.49894 38.9216,-45.24448 21.56012,-21.04798 37.22485,-32.40649 60.07086,-43.55739 42.36603,-20.67844 85.842,-23.65811 129.99342,-8.90923 10.40305,3.47516 33.6016,14.31012 47.50574,22.18771 l 6.72936,3.81262 9.08975,-9.73691 c 30.64865,-32.83076 71.42451,-47.94202 111.0253,-41.14525 54.70722,9.38953 91.64914,56.64623 89.75033,114.81006 l -0.32411,9.9279 12.5,0.18858 c 14.423,0.21759 26.35395,2.88727 39.20583,8.77273 33.24956,15.22648 61.90907,48.06708 73.68927,84.43972 4.56906,14.10747 5.61321,21.35153 5.51233,38.24317 -0.0797,13.34782 -0.45453,16.85759 -2.69934,25.27735 -2.85649,10.71401 -9.36818,25.32699 -15.03695,33.74462 -3.23097,4.79772 -3.48339,5.61595 -2.29354,7.43454 8.43813,12.897 13.63648,24.39951 16.79783,37.16896 2.92283,11.806 3.12666,32.90798 0.43789,45.33404 -9.70556,44.85404 -42.95044,90.87711 -100.61332,139.28565 -32.95804,27.66858 -70.20546,52.69969 -104.5,70.22629 -21.5522,11.0145 -36.81532,17.3301 -63,26.0684 -33.21653,11.085 -58.47584,16.9431 -91,21.1047 -17.00769,2.1762 -65.20573,2.5143 -81,0.5682 -25.32006,-3.1198 -51.23976,-8.6254 -74.13978,-15.7479 -6.12689,-1.9057 -11.54302,-3.4648 -12.03586,-3.4648 -0.49284,0 -3.44972,3.1258 -6.57085,6.9463 -13.74572,16.8256 -34.75413,25.0271 -56.4547,22.0393 z m 22.20119,-32.373 c 5.52251,-2.6152 11.81952,-8.5647 10.70976,-10.1187 -0.39037,-0.5467 -2.95976,-2.5362 -5.70976,-4.4212 -33.60452,-23.034 -75.26303,-77.70123 -106.04072,-139.15406 -23.45665,-46.83513 -32.705712,-78.43172 -34.151661,-116.66869 -0.700154,-18.51501 -0.369492,-18.01677 -9.077133,-13.67757 -21.150966,10.53997 -32.640206,48.95378 -25.718666,85.98927 3.6948,19.76994 15.27758,51.0491 29.218764,78.9049 23.608906,47.17282 51.796596,84.89595 75.873536,101.54035 9.12482,6.308 27.54152,15.2292 36.89588,17.8728 10.20582,2.8842 21.57456,2.7757 28,-0.2671 z m 204.5,-8.0713 c 66.17404,-7.9872 131.48071,-32.2901 188.74772,-70.23962 68.27077,-45.24146 120.61769,-99.09988 137.84661,-141.82688 7.57461,-18.78471 9.85542,-38.9156 6.05865,-53.47485 -2.32048,-8.8982 -9.14406,-23 -11.12924,-23 -0.86263,0 -3.47087,1.71236 -5.79608,3.80525 -16.29611,14.66787 -38.91782,32.09836 -57.6551,44.42442 -20.04089,13.18363 -51.54447,28.33915 -49.95649,24.03273 0.51115,-1.38617 73.09103,-74.61718 93.42548,-94.26361 23.10711,-22.32528 30.72069,-35.22011 33.61046,-56.92471 3.59759,-27.02086 -8.86629,-58.92322 -32.08844,-82.13314 -24.42877,-24.41589 -53.0493,-33.22207 -75.25303,-23.15441 -5.60668,2.54219 -7.97629,4.65576 -19.95524,17.7991 -30.76172,33.75187 -51.46572,50.88793 -84.33061,69.79783 -14.21439,8.17872 -17.52469,9.65467 -17.52469,7.81367 0,-0.44158 5.9625,-7.49704 13.25,-15.6788 32.75066,-36.76954 62.37056,-72.83719 73.51118,-89.51334 9.85801,-14.75623 13.40217,-30.07307 11.29539,-48.81542 -3.33346,-29.65513 -18.14427,-51.83668 -42.55657,-63.73525 -12.52328,-6.10386 -20.3303,-7.82967 -35.5,-7.84761 -13.90669,-0.0165 -21.23085,1.4591 -34.05376,6.86058 -16.27428,6.85532 -33.0873,20.7168 -45.08045,37.16654 -5.94996,8.16094 -16.15918,17.65068 -32.86579,30.54961 -29.67142,22.90888 -59.05342,37.63344 -86.29627,43.2467 -8.10209,1.6694 -31.60702,3.52837 -37.70373,2.98193 -1.925,-0.17254 -15.65,-0.81689 -30.5,-1.4319 -28.81258,-1.19327 -32.34133,-1.53884 -30.8582,-3.02197 0.5121,-0.5121 12.23158,-2.72084 26.0433,-4.90833 25.61733,-4.05724 42.0934,-7.41798 54.73151,-11.16396 22.55962,-6.68676 49.84515,-20.39385 70.08339,-35.20691 10.26919,-7.51637 23.5,-18.63221 23.5,-19.74347 0,-2.28098 -26.11582,-15.30801 -40.85224,-20.37782 -30.06523,-10.34343 -59.91638,-10.65657 -89.14776,-0.93517 -11.40145,3.79175 -34.45619,15.60016 -44.15608,22.61632 -55.68354,40.2772 -104.54656,117.3415 -127.29364,200.76114 -12.1034,44.38645 -14.76458,89.09196 -7.44084,125 6.57297,32.22708 31.69566,85.84683 60.20664,128.5 25.43903,38.05744 52.48722,66.31905 73.68392,76.98955 21.19689,10.6706 66.37399,22.3466 98.52803,25.4645 6.03458,0.5852 12.77197,1.2428 14.97197,1.4615 8.15632,0.8105 46.41069,-0.415 58.5,-1.8742 z M 85.8439,967.02723 c -7.27483,-4.21653 -9.69919,-14.33768 -4.9561,-20.69054 3.80775,-5.10007 6.56586,-6.15475 26.41375,-10.10041 34.3345,-6.82554 48.60996,-10.87256 81.80057,-23.19006 11.825,-4.38842 22.91379,-8.21349 24.64175,-8.50014 10.14701,-1.68328 19.63619,9.27312 16.4342,18.97525 -2.09496,6.34779 -5.46271,8.31721 -29.62637,17.32518 -34.17673,12.74075 -52.73804,18.05337 -86.80451,24.8452 -20.7969,4.14628 -22.88168,4.24606 -27.90329,1.33552 z M 46.34298,914.25685 c -10.0077,-6.10176 -9.55541,-21.11019 0.7901,-26.21821 1.90797,-0.94205 16.36614,-7.97867 32.12927,-15.63694 29.7047,-14.43157 49.79675,-25.34726 87.33977,-47.45031 39.73723,-23.39487 40.58399,-23.73839 48.52638,-19.68648 7.25687,3.70218 10.01456,13.12631 5.8433,19.96886 -2.53885,4.16472 -3.46294,4.91914 -11.86968,9.69025 -3.575,2.02894 -17.3,10.05776 -30.5,17.84184 -41.75446,24.62271 -71.21687,40.33122 -104.63783,55.78987 -18.11104,8.37714 -21.93707,9.16685 -27.62131,5.70112 z M 3.60212,850.7154 c -9.33427,-3.19403 -13.04108,-14.0097 -7.65227,-22.3277 0.84224,-1.30006 10.08704,-7.97877 20.54398,-14.84157 20.89643,-13.71414 36.55655,-25.22584 61.60829,-45.28802 9.075,-7.26753 17.94805,-13.84211 19.71788,-14.61018 6.78176,-2.94312 13.73634,-0.75976 18.63248,5.84958 2.57816,3.48027 2.75689,11.41511 0.34021,15.10343 -3.69481,5.639 -53.47164,43.95506 -79.69057,61.34239 -25.45207,16.87876 -26.27844,17.24316 -33.5,14.77207 z"
       id="path3632" />
    <path
       style="fill:#8f8f8f"
       d="m 25.2151,1085.7068 c -18.94123,-4.1092 -43.89353,-16.0278 -59.47058,-28.4063 -3.93248,-3.125 -10.92201,-9.4769 -15.53229,-14.1154 -42.191834,-42.45 -86.66774,-127.7891 -96.57984,-185.31464 -1.77656,-10.31034 -2.00929,-32.03029 -0.46238,-43.15213 5.6189,-40.39839 27.55446,-68.99546 58.529884,-76.30456 4.287841,-1.01177 8.116646,-2.47471 8.508455,-3.25096 0.39181,-0.77625 1.656496,-7.52344 2.810414,-14.99375 5.694027,-36.86241 20.740177,-82.3049 39.944237,-120.6399 29.64934,-59.18577 69.89424,-108.54471 111.0841,-136.24071 24.04895,-16.17048 53.89342,-27.70886 80.51876,-31.12994 13.34482,-1.71466 39.60476,-0.68474 52.44555,2.05693 20.29397,4.33303 41.73954,12.92574 65.33639,26.1787 l 10.74568,6.03521 10.15196,-10.63302 c 19.27478,-20.18816 39.31037,-32.44699 63.03846,-38.57026 45.25924,-11.67961 92.64142,6.05243 117.66309,44.03357 7.03507,10.67874 11.35652,20.53048 14.87812,33.91804 2.07664,7.89449 2.60616,12.66573 3.01886,27.20146 l 0.50047,17.6277 14.12884,0.51546 c 19.88756,0.72557 34.04541,5.10391 51.08092,15.79689 43.13506,27.07534 69.84658,77.50167 65.48314,123.61986 -1.62118,17.13461 -7.66313,34.51435 -16.99355,48.88212 -2.16792,3.33834 -3.94167,6.38799 -3.94167,6.77699 0,0.389 2.42975,4.73768 5.39944,9.66373 15.80567,26.21808 18.94843,57.25558 9.02811,89.1605 -5.96346,19.17917 -20.17185,43.96598 -38.02141,66.32906 -11.12189,13.93422 -39.98846,42.80269 -56.90614,56.90988 -57.94419,48.31807 -109.9672,78.23557 -171.46245,98.60487 -85.66191,28.3741 -166.54551,29.8159 -245.25232,4.3717 l -11.22709,-3.6295 -2.46397,3.3715 c -5.36917,7.3468 -16.67734,17.398 -23.16176,20.5872 -12.39617,6.0967 -28.39936,7.8681 -42.81943,4.7397 z m 27.95394,-30.1607 c 5.1205,-2.2651 11.93308,-7.8494 11.93308,-9.7816 0,-0.7039 -3.7125,-3.979 -8.25,-7.2779 -39.54959,-28.7539 -87.26609,-96.26883 -116.70952,-165.13425 -14.58537,-34.1138 -19.886402,-56.73917 -21.654064,-92.42188 l -0.684668,-13.82098 -2.600874,0.63939 c -12.579019,3.09238 -25.890364,19.69439 -30.470134,38.00257 -4.33385,17.32513 -4.59892,38.69343 -0.69265,55.83929 11.41731,50.11433 50.23299,122.74172 84.90574,158.86576 12.70822,13.2402 20.027,18.5986 36.65617,26.8378 21.66578,10.7347 36.23874,13.2627 47.56692,8.2518 z m 209.93308,-8.7509 c 56.41819,-7.9062 114.69533,-28.095 162.24229,-56.205 48.04155,-28.40243 102.88378,-73.74927 129.52285,-107.09725 25.11236,-31.43678 36.41708,-55.67493 37.89117,-81.2415 0.79813,-13.8427 -1.12876,-23.41837 -7.19388,-35.75 -2.50221,-5.0875 -5.09239,-9.23171 -5.75595,-9.20936 -0.66356,0.0224 -2.59786,1.25985 -4.29844,2.75 -25.22361,22.10243 -51.01201,41.35985 -73.03215,54.53658 -10.59773,6.34163 -31.1622,15.84133 -33.55075,15.49869 -1.88427,-0.2703 7.3636,-9.9853 54.20148,-56.93924 61.6138,-61.76649 61.46779,-61.5951 67.63556,-79.38667 2.55955,-7.38326 2.77583,-9.19492 2.80558,-23.5 0.0276,-13.28188 -0.2984,-16.64484 -2.27827,-23.5 -8.5992,-29.77412 -30.4024,-56.53764 -56.68949,-69.58657 -15.19158,-7.54111 -28.53191,-9.61894 -40.96504,-6.38052 -10.19887,2.65647 -15.06986,6.07628 -25.58246,17.9609 -20.22451,22.86405 -44.022,44.68073 -62.9525,57.7126 -8.88728,6.11805 -33.77508,21.00258 -37.52111,22.44006 -3.80466,1.45999 -0.22953,-3.29874 17.13042,-22.80167 24.06249,-27.03288 34.12463,-39.00813 49.86411,-59.3448 16.01658,-20.6947 18.83304,-24.78678 22.55495,-32.77044 5.1214,-10.98564 6.2931,-17.63385 5.68023,-32.22956 -0.672,-16.00413 -2.98739,-25.33139 -9.37691,-37.77366 -6.3982,-12.45917 -19.06309,-25.3671 -30.83169,-31.42337 -14.10275,-7.25746 -20.77431,-8.80297 -38,-8.80297 -11.33209,0 -16.58943,0.43804 -21.5,1.79139 -22.294,6.14418 -42.35854,20.39818 -57.99198,41.19795 -17.19153,22.87273 -61.58789,54.54786 -93.98107,67.05194 -24.802,9.57382 -44.42638,11.68787 -87.52695,9.42892 -29.14517,-1.52754 -34.82895,-2.04125 -33.81399,-3.05621 0.49264,-0.49264 10.77733,-2.44952 22.85485,-4.34862 52.77644,-8.29867 78.39277,-16.71512 109.45914,-35.96367 13.86491,-8.59062 40,-28.63049 40,-30.67121 0,-2.12568 -27.21095,-15.85697 -41.1195,-20.74986 -16.73542,-5.88737 -27.54775,-7.67581 -46.3805,-7.67171 -24.24489,0.005 -39.01878,3.45886 -62.376,14.58112 -20.4234,9.72523 -34.29058,19.7826 -53.79455,39.01525 -56.22724,55.44504 -98.93114,144.14665 -108.99394,226.39471 -2.10287,17.1878 -2.07659,48.37131 0.053,62.87116 3.659,24.91335 11.53736,47.50077 28.64603,82.12884 34.20322,69.22752 79.40132,125.00055 112.50287,138.82495 24.86057,10.3827 62.03042,19.67 92.80102,23.1874 16.2912,1.8622 63.56258,1.2875 79.66157,-0.9686 z M 85.40067,966.29193 c -8.56901,-5.22483 -8.32438,-19.87472 0.40723,-24.38754 1.53682,-0.79429 10.13993,-2.85936 19.11802,-4.58905 32.43558,-6.24894 52.12543,-11.92248 91.91787,-26.48574 16.60658,-6.07768 21.87562,-6.80622 26.61703,-3.68026 6.58208,4.33948 8.68558,13.23712 4.68178,19.80356 -2.4354,3.99419 -3.94293,4.7662 -23.04048,11.79911 -38.08403,14.02491 -59.89055,20.34546 -91.2232,26.44074 -18.48884,3.59671 -24.03132,3.81064 -28.47825,1.09918 z M 49.72142,915.22734 c -5.66494,-1.71644 -10.6193,-8.23679 -10.6193,-13.97589 0,-7.31558 4.08358,-11.28997 18,-17.51871 29.40575,-13.16149 66.49983,-32.88829 110.22933,-58.62049 33.25673,-19.56959 35.78711,-20.86135 40.85598,-20.85706 8.37543,0.007 13.91469,5.69923 13.91469,14.29872 0,7.77467 -1.97833,9.46163 -31,26.43425 -53.62236,31.35974 -91.66581,51.71081 -122.5,65.5305 -11.36173,5.09226 -14.79162,5.94764 -18.8807,4.70868 z M 1.34298,849.25685 c -6.8323,-4.1657 -9.25724,-13.18621 -5.29269,-19.68819 1.2713,-2.08497 8.4272,-7.46948 20.74626,-15.61067 20.39037,-13.47519 37.56763,-26.12024 63.30557,-46.60244 18.85989,-15.00865 21.81425,-16.38548 28.86141,-13.45035 2.43804,1.01544 5.32944,3.05023 6.42533,4.52176 2.81334,3.77767 3.32217,11.47312 1.02479,15.49897 -1.75315,3.07219 -24.6153,21.77663 -50.31153,41.1619 -12.72083,9.59661 -43.25052,30.18056 -50.48519,34.03849 -4.98421,2.65786 -10.05278,2.70421 -14.27395,0.13053 z"
       id="path3630" />
    <path
       style="fill:#6f6f6f"
       d="m 30.91608,1086.2348 c -18.87764,-2.9728 -41.89844,-12.8545 -60.81396,-26.1045 -9.66766,-6.7721 -28.26404,-25.4899 -38.62661,-38.8788 -39.05442,-50.46039 -72.45641,-123.08502 -78.42724,-170.52133 -2.07962,-16.52187 0.0779,-40.54594 5.12118,-57.02486 4.86542,-15.89769 15.2254,-32.16965 26.2306,-41.1992 7.37838,-6.05383 17.063291,-10.87075 27.340449,-13.59813 l 8.861621,-2.35173 2.587815,-15.4024 C -63.04006,639.19625 -21.23153,555.00392 34.01214,497.98457 c 27.58601,-28.4727 55.9602,-47.1195 87.76499,-57.67694 50.07243,-16.62128 97.02134,-10.13177 151.26297,20.90833 4.83965,2.76952 9.42096,5.03017 10.18069,5.02366 0.75973,-0.006 3.8219,-2.95437 6.80481,-6.55081 23.19667,-27.96781 59.55903,-45.43736 94.57652,-45.43736 62.67808,0 109.18022,49.82667 107.327,115 l -0.327,11.5 8,-0.33301 c 30.02325,-1.24974 59.11989,12.02276 84.63601,38.60692 42.67105,44.45716 50.80732,104.39121 20.5295,151.22609 l -3.55564,5.5 2.12237,3.5 c 11.03821,18.20305 14.52496,26.87093 17.36861,43.17744 1.91211,10.96476 1.48729,26.0451 -1.07957,38.32256 -6.40751,30.64761 -26.16185,64.43827 -56.88217,97.29945 -49.29121,52.72626 -122.0274,103.0958 -184.13911,127.5157 -91.849,36.1114 -176.79787,42.2058 -260.14944,18.6635 -7.78219,-2.198 -16.05127,-4.6674 -18.37573,-5.4875 -2.32445,-0.8201 -4.95721,-1.4706 -5.85056,-1.4455 -0.89335,0.025 -3.81014,2.9483 -6.48177,6.496 -7.58774,10.076 -19.06437,17.8899 -30.89843,21.0372 -6.99801,1.8612 -18.92693,2.5073 -25.93011,1.4045 z m 23.18604,-30.4038 c 3.5099,-1.8021 12,-9.3757 12,-10.7045 0,-0.3897 -3.4875,-3.1586 -7.75,-6.1531 -45.3505,-31.8596 -103.44274,-119.20899 -127.8419,-192.2272 -7.539208,-22.56223 -11.4081,-45.54544 -11.4081,-67.77001 0,-12.45905 -0.396357,-12.9908 -7.625292,-10.23004 -7.327683,2.79847 -16.415238,12.0954 -21.259438,21.74925 -7.54323,15.03267 -11.19084,37.33157 -9.12462,55.78145 3.77558,33.71323 26.986007,89.23975 55.77964,133.44216 17.35549,26.64319 37.05755,48.97629 51.88363,58.81219 9.19087,6.0975 27.86671,15.0466 36.84608,17.656 8.88126,2.5809 23.12644,2.4029 28.5,-0.3562 z m 203.5,-8.0787 c 55.37603,-6.4808 114.7098,-26.1918 164.08631,-54.5103 53.4424,-30.65042 112.20794,-80.3666 141.58817,-119.78492 30.03256,-40.2935 37.75849,-77.55984 22.40154,-108.05468 -1.87404,-3.72134 -4.06058,-7.30821 -4.85898,-7.97082 -1.19449,-0.99134 -3.99944,0.95762 -15.83434,11.00215 -27.53697,23.37122 -54.65289,42.1775 -76.87484,53.31666 -14.32184,7.17908 -19.00786,8.9325 -19.00786,7.11237 0,-0.71499 24.35573,-25.51647 54.12383,-55.11441 40.95112,-40.71702 55.28431,-55.59211 58.89198,-61.1185 6.04877,-9.26578 10.61146,-21.83659 12.07887,-33.27881 4.88573,-38.0969 -21.73621,-84.08713 -59.37331,-102.56922 -12.67655,-6.22496 -19.72404,-7.8358 -32.16099,-7.35104 -9.13842,0.35619 -10.7477,0.7278 -17.56038,4.05493 -6.88475,3.36234 -8.52542,4.82845 -20,17.87217 -20.25204,23.02148 -43.20271,43.58524 -64,57.3439 -12.21639,8.08187 -33.01258,19.87043 -33.75091,19.13209 -0.68414,-0.68413 -1.40481,0.18668 17.86105,-21.58242 35.88325,-40.54565 64.64777,-76.61991 70.74034,-88.71715 8.40225,-16.68328 9.97515,-35.84623 4.66075,-56.78285 -2.13442,-8.40874 -9.49138,-22.89602 -15.22236,-29.97577 -9.6827,-11.9615 -26.30319,-22.37229 -41.78887,-26.17584 -9.90446,-2.4327 -28.65662,-2.39507 -38.5,0.0773 -23.41136,5.88016 -44.5566,20.62729 -60.36948,42.10294 -6.46993,8.78688 -8.51736,10.80415 -23.11988,22.77936 -32.49083,26.64502 -59.49492,41.84361 -87.01064,48.97181 -14.67701,3.80222 -24.21444,4.96822 -41,5.01249 -18.88377,0.0498 -60.5,-2.32135 -60.5,-3.44709 0,-0.46484 0.15407,-0.84516 0.34238,-0.84516 1.64013,0 41.37331,-6.53988 49.15762,-8.09109 40.44689,-8.06002 74.07807,-23.93946 107.47281,-50.74479 6.31005,-5.06496 11.83563,-9.85734 12.27908,-10.64973 0.59576,-1.06458 -0.57201,-2.24673 -4.47281,-4.52789 -18.6985,-10.93481 -43.41247,-20.52198 -60.77908,-23.57777 -12.50558,-2.20045 -32.68451,-2.20857 -45,-0.0181 -19.49953,3.46825 -43.8187,13.43551 -61.5342,25.21992 -37.68478,25.06804 -75.79583,72.42228 -102.92636,127.88941 -34.69456,70.93145 -47.92295,143.8646 -36.45675,201 10.46545,52.14872 60.00517,139.80161 103.42806,183 16.11707,16.03375 27.05013,23.16535 46.09561,30.06825 30.87456,11.1901 64.83532,18.3014 99.39364,20.8126 10.39463,0.7553 44.51379,-0.3602 57.5,-1.88 z M 86,965.98152 c -8.56967,-5.72491 -8.80334,-17.81456 -0.45011,-23.28781 1.33096,-0.87207 12.23719,-3.5627 24.23608,-5.97918 26.74001,-5.38521 47.09988,-10.9119 66.81615,-18.13724 35.4248,-12.98198 37.78935,-13.71657 41.72056,-12.96117 11.00836,2.11528 15.3841,16.0214 7.40118,23.52096 -2.38574,2.24129 -35.12872,14.9371 -55.62174,21.56685 -20.08318,6.49718 -68.54969,17.523 -77.10212,17.54025 -2.09062,0.004 -5.02791,-0.94523 -7,-2.26266 z M 46.40067,913.29193 c -4.08854,-2.49293 -6.29955,-6.79242 -6.29481,-12.24082 0.006,-7.08867 2.56765,-9.99151 13.16478,-14.91915 39.09987,-18.18135 66.02951,-32.46162 113.89087,-60.39413 35.53299,-20.73752 36.9694,-21.48739 41.15077,-21.48264 6.7632,0.008 13.77843,7.02791 13.7861,13.79592 0.008,6.8478 -3.29033,10.49599 -15.99626,17.69433 -4.675,2.64854 -17.05,9.84625 -27.5,15.9949 -30.8452,18.14894 -52.35226,29.9758 -76.38792,42.00617 -44.15499,22.10054 -48.89859,23.76171 -55.81353,19.54542 z M 3.84264,849.83371 c -4.82848,-1.73786 -6.19807,-2.91936 -8.14841,-7.02939 -3.40186,-7.16889 -1.04183,-13.75678 6.75686,-18.86134 32.82531,-21.48552 48.00206,-32.44441 78.90299,-56.97462 8.66358,-6.87744 16.46289,-12.77725 17.33179,-13.11067 3.41992,-1.31235 9.21123,-0.5458 12.51837,1.65696 7.84698,5.22656 8.75482,14.77213 2.04965,21.55104 -8.6202,8.715 -53.26869,42.60595 -76.15177,57.80389 -25.38541,16.85986 -26.54402,17.38115 -33.25948,14.96413 z"
       id="path3628" />
    <path
       style="fill:#4f4f4f"
       d="m 21.60212,1083.8235 c -17.98194,-4.6545 -38.97189,-14.794 -53.92932,-26.0513 -8.76949,-6.6001 -26.70435,-24.956 -35.68314,-36.5207 -33.52499,-43.18061 -64.20138,-105.28308 -75.57649,-153.00005 -1.9869,-8.33474 -2.6105,-14.10877 -3.02405,-28 -0.54709,-18.37704 0.17403,-26.09218 3.81346,-40.79946 4.39946,-17.77865 13.72589,-34.3466 25.16881,-44.71118 7.50763,-6.80014 21.424277,-13.92097 31.037105,-15.88099 3.743507,-0.76328 7.031903,-1.61331 7.307547,-1.88896 0.275645,-0.27564 1.167655,-4.93777 1.982247,-10.36029 C -61.70054,622.75777 2.37027,512.17646 75.10212,463.57323 c 23.09103,-15.43063 52.48313,-26.86876 78,-30.3542 11.81921,-1.61442 33.82841,-1.36809 45.61375,0.51053 24.59307,3.92021 45.58091,11.86415 74.6981,28.27337 l 9.81185,5.52955 10.00761,-10.62592 c 5.50419,-5.84425 13.91386,-13.56641 18.68815,-17.16035 35.44366,-26.68088 79.77622,-32.52317 117.66304,-15.50602 23.27368,10.45355 44.51187,32.81509 53.63484,56.47174 6.26325,16.24116 9.19519,35.21428 8.13841,52.66516 l -0.46179,7.62564 15.35302,0.51387 c 16.46768,0.55118 21.57217,1.63227 35.88739,7.60067 29.15795,12.15673 57.72142,42.08517 70.85557,74.24156 15.13487,37.05479 12.32929,74.32417 -7.93906,105.46234 -2.17298,3.33834 -3.95088,6.42713 -3.95088,6.86398 0,0.43684 2.05645,4.09369 4.56988,8.12633 27.88434,44.73859 18.49396,98.75653 -27.0214,155.43997 -32.02229,39.87958 -89.22034,87.20086 -142.68848,118.04945 -72.18847,41.6494 -162.25115,64.6156 -235.60382,60.0796 -35.14549,-2.1733 -63.73615,-7.4324 -94.24312,-17.3354 l -12.48693,-4.0535 -2.97901,3.8799 c -1.63845,2.134 -5.93329,6.8072 -9.54409,10.3849 -14.85473,14.7186 -36.22778,19.5918 -59.50303,13.5671 z m 31.89868,-27.4242 c 5.26509,-2.329 12.61107,-8.7629 12.57553,-11.0142 -0.0142,-0.8985 -2.36642,-3.2086 -5.22719,-5.1336 -35.3927,-23.8156 -76.6049,-78.06857 -108.2473,-142.50005 -21.51124,-43.80203 -29.531644,-69.49861 -32.460421,-104 -0.560265,-6.6 -1.023307,-15.27662 -1.028982,-19.28138 -0.01285,-9.06861 -0.867167,-9.54824 -9.466587,-5.31476 -24.44335,12.03342 -35.8808,54.63364 -25.66597,95.59614 14.16687,56.81061 57.0062,132.74811 93.02151,164.89105 14.1951,12.6688 36.00545,24.1398 53.60073,28.191 7.44884,1.715 17.15339,1.1072 22.89868,-1.4342 z m 208.60132,-8.5849 c 34.80494,-4.7928 70.82007,-14.3186 105.5,-27.9041 74.98077,-29.37307 163.32103,-97.23374 202.50005,-155.55525 19.65112,-29.25248 27.29386,-56.79014 22.45163,-80.89576 -1.72556,-8.59018 -10.01796,-26.54786 -12.45168,-26.96484 -0.825,-0.14135 -6,3.61727 -11.5,8.3525 -20.95356,18.03997 -43.20439,34.59973 -62,46.14234 -11.49185,7.05729 -35.28884,18.80665 -36.21496,17.88053 -0.8656,-0.86559 57.84326,-60.4984 91.22299,-92.65864 15.92637,-15.34453 22.63153,-24.05596 27.54948,-35.79266 8.91707,-21.2806 7.63448,-47.20998 -3.5016,-70.78968 -11.24691,-23.81438 -29.50455,-42.9008 -51.05591,-53.37351 -17.93771,-8.71669 -32.58974,-10.10362 -47,-4.44893 -6.30855,2.47552 -7.98565,3.79381 -16.97835,13.34595 -38.83207,41.2478 -57.5934,57.0273 -89.52165,75.29357 -9.57091,5.47556 -13,7.13195 -13,6.27956 0,-0.25476 4.8375,-5.92356 10.75,-12.59734 42.18929,-47.62143 70.21994,-82.57997 77.55103,-96.71809 6.32499,-12.19783 7.19897,-16.10201 7.19897,-32.1586 0,-17.20053 -1.6153,-25.00412 -7.9693,-38.5 -7.72263,-16.40288 -19.14034,-28.14465 -35.0307,-36.02497 -11.88516,-5.89406 -18.63762,-7.59267 -32.61283,-8.20387 -31.96235,-1.39787 -61.11834,13.93903 -83.76249,44.0615 -3.79028,5.04204 -9.5314,11.44243 -12.75805,14.2231 -32.69153,28.17298 -60.39859,45.46252 -87.29678,54.47424 -21.7233,7.27797 -41.01739,8.99444 -79.35575,7.05976 -23.26162,-1.17385 -29.40783,-1.72936 -28.55623,-2.58096 0.21662,-0.21663 11.40722,-2.21922 24.868,-4.45021 26.88343,-4.45566 45.16727,-8.85888 60.47413,-14.56374 10.24274,-3.81746 30.21299,-13.41108 37.76997,-18.14453 21.07185,-13.19872 43.73003,-30.72296 43.73003,-33.82159 0,-1.26487 -19.30828,-11.9579 -29.69032,-16.44265 -10.21086,-4.4108 -23.83212,-8.7246 -34.03978,-10.78025 -13.53792,-2.72631 -38.58638,-2.45919 -52.2699,0.55741 -44.4372,9.79642 -84.21014,38.751 -120.77997,87.92746 -41.24386,55.46177 -70.04661,126.13582 -77.72761,190.72226 -3.04524,25.60618 -1.8195,58.05158 2.99239,79.20871 3.78408,16.63801 14.45825,44.21686 26.14948,67.56236 32.62918,65.15527 75.59502,119.19002 107.61222,135.33552 20.88469,10.5316 64.54445,21.9452 99.02521,25.8873 16.08958,1.8395 61.52225,1.2878 77.72828,-0.9439 z M 87.41844,966.30807 c -4.88847,-2.21944 -7.31632,-6.18821 -7.31632,-11.95991 0,-5.32574 1.68029,-8.736 5.45329,-11.06784 1.82224,-1.12621 10.75673,-3.42579 21.5783,-5.55387 33.16922,-6.52279 51.49494,-11.80916 87.64705,-25.28328 8.89825,-3.31644 17.22325,-6.11611 18.5,-6.22149 6.20546,-0.51221 8.15276,0.12587 11.93901,3.91212 3.41993,3.41993 3.88235,4.44807 3.88235,8.63197 0,6.05742 -2.77692,10.65237 -7.73294,12.79564 -9.7487,4.21589 -51.10658,18.83771 -62.26706,22.01411 -18.02356,5.12973 -62.30064,14.82646 -66.91277,14.65397 -0.32297,-0.0121 -2.46989,-0.87672 -4.77091,-1.92142 z M 48.12205,913.5493 c -10.4372,-5.392 -10.43092,-19.35503 0.011,-24.51066 1.90797,-0.94205 16.36614,-7.97867 32.12927,-15.63694 29.62712,-14.39387 49.74865,-25.32181 87.0691,-47.28695 32.17366,-18.93597 36.40394,-21.13603 40.6404,-21.13603 7.7273,0 13.403,5.62054 13.403,13.27273 0,6.40618 -2.53353,9.50427 -12.53533,15.32865 -5.08057,2.95858 -20.0374,11.69226 -33.2374,19.40818 -43.67018,25.52692 -71.39642,40.25638 -102.83924,54.63295 -17.02485,7.78425 -19.76965,8.44459 -24.64083,5.92807 z M 1.40067,848.29193 c -5.87589,-3.58274 -8.0448,-11.76293 -4.78846,-18.06 1.02734,-1.98664 7.98059,-7.20452 21.75,-16.32168 21.84055,-14.46131 35.93213,-24.84785 61.73991,-45.50691 18.68001,-14.9533 21.57257,-16.35065 28.42724,-13.73283 6.25206,2.38769 8.98595,6.92899 8.32325,13.82589 -0.5916,6.15681 -1.60933,7.19648 -25.27918,25.82407 -30.15094,23.72805 -62.34988,46.53566 -75.9565,53.8026 -4.96164,2.64987 -10.04818,2.71029 -14.21626,0.16886 z"
       id="path3626" />
    <path
       style="fill:#2e2e2e"
       d="m 30.60212,1085.2613 c -17.7144,-2.624 -43.79242,-13.971 -60.5,-26.3246 -34.12267,-25.2304 -73.10324,-82.53001 -97.74825,-143.68525 -15.77041,-39.1334 -21.3202,-67.84597 -18.36356,-95.00644 3.04707,-27.99125 11.21312,-47.26106 26.52436,-62.59077 9.17036,-9.18143 19.800754,-15.16727 32.08745,-18.06806 3.85,-0.90895 7.523387,-2.05374 8.163081,-2.54399 0.639695,-0.49025 1.458335,-3.23122 1.819201,-6.09105 2.574648,-20.40385 10.127158,-51.51646 18.254558,-75.19969 21.18061,-61.72034 55.95364,-119.23817 96.74148,-160.01941 20.94211,-20.93873 37.96281,-33.53862 60.0558,-44.45744 22.86835,-11.30201 46.98288,-17.7618 69.96588,-18.74242 33.96462,-1.44917 64.789,7.10164 103.63054,28.74753 5.89366,3.28446 11.17884,5.97174 11.74484,5.97174 0.566,0 6.78809,-5.79111 13.82686,-12.86913 17.38678,-17.48375 31.31914,-26.51032 51.08626,-33.09805 14.76602,-4.92102 24.83248,-6.3408 40.7115,-5.74199 21.15505,0.79778 37.51212,5.82163 54.28291,16.67223 31.50777,20.38535 48.91551,55.25622 48.1918,96.53694 -0.10606,6.05 -0.14376,11.55044 -0.0838,12.22321 0.0816,0.91476 2.44157,1.07473 9.35907,0.63438 49.68478,-3.1628 103.53616,42.58754 118.4199,100.60559 3.08291,12.01747 4.13845,31.08201 2.3849,43.07464 -2.2443,15.34882 -7.83804,29.82336 -17.00864,44.01206 -2.91867,4.51575 -3.75245,6.61957 -3.09711,7.81471 0.49322,0.89948 3.13982,5.35046 5.88133,9.89108 19.49779,32.29309 18.65608,71.46533 -2.41286,112.29216 -21.19642,41.07386 -64.84575,86.1438 -125.50109,129.58566 -45.72193,32.74646 -93.13303,55.99776 -144.54651,70.88846 -40.8168,11.8216 -69.25794,16.3518 -107.86992,17.1816 -42.46013,0.9126 -80.41568,-4.5132 -120,-17.154 -6.05,-1.932 -11.76588,-3.521 -12.70196,-3.5311 -0.93608,-0.01 -3.05785,1.9523 -4.71506,4.3609 -4.55928,6.6267 -15.30285,15.9641 -22.32177,19.4002 -10.67772,5.2273 -23.64997,7.0984 -36.26121,5.2303 z m 24.20527,-28.8222 c 4.63924,-2.4079 12.29473,-9.247 12.29473,-10.9836 0,-0.6081 -4.3875,-4.3267 -9.75,-8.2637 -11.8933,-8.7315 -35.85532,-32.7575 -46.84567,-46.97069 -20.81574,-26.91977 -40.28245,-57.97204 -55.77521,-88.96966 -24.72416,-49.46761 -34.591099,-84.13152 -34.644433,-121.71059 -0.0084,-5.93417 -0.409145,-11.41124 -0.890495,-12.17124 -2.449848,-3.86809 -17.258579,4.2119 -23.941092,13.06282 -5.20253,6.8907 -9.55991,16.26255 -12.23685,26.31901 -3.02839,11.37674 -3.7964,36.55052 -1.48896,48.80536 6.69054,35.53355 29.715924,87.48285 56.66411,127.84416 15.88786,23.79583 31.94371,42.20673 46.13058,52.89683 9.19345,6.9275 30.9096,17.9283 41.27802,20.9104 9.51867,2.7376 23.13987,2.3789 29.20527,-0.7691 z m 202.91977,-7.7118 c 56.53581,-6.5704 118.86545,-27.6937 168.60879,-57.1408 50.63964,-29.97772 105.23385,-75.76834 133.33617,-111.83505 34.33621,-44.06732 43.21811,-83.11425 26.30189,-115.62936 -2.30513,-4.43076 -4.75118,-8.27083 -5.43566,-8.53349 -0.68448,-0.26266 -7.70015,5.00366 -15.59037,11.70292 -17.84052,15.14766 -38.98,31.03997 -53.36554,40.11934 -12.53665,7.91245 -39.11131,21.54293 -40.09104,20.56321 -0.35977,-0.35978 23.21121,-24.51141 52.37995,-53.6703 29.16874,-29.15889 54.36818,-54.7118 55.99875,-56.78424 7.97207,-10.13246 13.58474,-24.28081 15.33158,-38.64767 4.62745,-38.05837 -22.19483,-84.36737 -59.59956,-102.89937 -12.61614,-6.25061 -16.71501,-7.22104 -30.5,-7.22104 -12.40235,0 -12.55961,0.0291 -20.1312,3.73044 -6.77801,3.31337 -8.7455,4.99041 -17.59776,15 -12.39256,14.01273 -33.03873,34.41586 -44.27104,43.74991 -14.13034,11.74231 -50.93905,35.41393 -52.55497,33.79801 -0.26227,-0.26227 5.75291,-7.44528 13.36707,-15.96225 18.27529,-20.44219 29.55334,-33.62587 41.76002,-48.81611 33.80944,-42.07319 38.53799,-51.20642 38.57085,-74.5 0.0508,-36.02483 -16.37594,-63.21613 -46.52108,-77.00655 -11.30881,-5.17341 -19.46883,-6.85913 -33.12189,-6.84242 -31.62461,0.0387 -58.65553,15.00703 -81.306,45.02302 -13.28535,17.6055 -49.49866,45.03311 -77.61207,58.78263 -29.67931,14.51536 -51.97991,18.57004 -91.29917,16.59996 -23.13297,-1.15908 -34.60824,-2.0645 -33.99079,-2.68194 0.22573,-0.22573 10.03008,-2.00676 21.78745,-3.95784 47.92895,-7.95358 75.68732,-18.0628 107.07654,-38.99582 14.03673,-9.36089 34.84404,-25.78231 34.84404,-27.49939 0,-2.70225 -27.32695,-16.64146 -43.73452,-22.30855 -15.5793,-5.38101 -29.01089,-7.63589 -45.63513,-7.66119 -24.0689,-0.0366 -43.31346,4.84409 -67.59429,17.14293 -77.9571,39.48719 -149.93455,162.71415 -159.98931,273.90516 -3.68856,40.79016 1.9252,74.25282 19.07422,113.69802 32.00402,73.61387 84.08259,143.03323 120.1787,160.19523 8.91602,4.2391 33.91752,12.4667 50.20033,16.5202 20.88418,5.1989 39.45344,8.0541 65,9.9945 9.50594,0.722 43.29713,-0.4412 56.12504,-1.9321 z M 86.40067,965.29193 c -7.73235,-4.71468 -8.23434,-16.76032 -0.89879,-21.56676 1.41175,-0.92501 12.3045,-3.63805 24.20611,-6.02898 26.72822,-5.36945 46.67706,-10.76892 66.59722,-18.02559 8.4133,-3.06486 20.15479,-7.33798 26.0922,-9.49581 12.08745,-4.39295 15.80925,-4.76681 20.28475,-2.03766 3.24038,1.97598 6.41996,7.44745 6.41996,11.04757 0,3.44705 -2.65079,8.79339 -5.16647,10.42021 -2.72374,1.76135 -40.85196,15.96137 -55.13821,20.53501 -20.00055,6.40304 -67.54697,17.11734 -75.91852,17.10779 -1.80224,-0.002 -4.71745,-0.88215 -6.47825,-1.95578 z M 47.07463,912.60515 c -7.32497,-4.87729 -8.52842,-14.57056 -2.54269,-20.48026 1.32219,-1.30539 5.92888,-3.91275 10.23708,-5.79413 26.84854,-11.72468 70.40253,-34.82084 113.3331,-60.09918 31.22695,-18.38702 36.18333,-20.98066 40.08531,-20.97639 10.08326,0.011 16.32863,11.71516 10.66469,19.98614 -3.5992,5.25587 -76.46658,47.36749 -117.25,67.76129 -43.08487,21.54464 -48.62145,23.53503 -54.52749,19.60253 z M 3.12205,848.53499 c -4.37154,-2.24042 -8.01993,-7.60093 -8.01993,-11.78354 0,-4.91078 3.79341,-9.50986 12.37229,-15 17.12153,-10.9571 39.80197,-27.02416 55.31889,-39.18849 37.34503,-29.27624 35.96241,-28.31186 40.58434,-28.30777 5.43283,0.005 10.43155,3.05093 12.28466,7.48604 3.75401,8.98462 2.08576,11.21201 -23.64777,31.57364 -36.30094,28.72309 -74.60374,55.07276 -81.96805,56.38834 -2.3494,0.4197 -4.55067,0.0483 -6.92443,-1.16822 z"
       id="path3624" />
    <path
       style="fill:#010101"
       d="m 28.49476,1084.1633 c -15.98623,-2.6741 -43.66054,-15.192 -58.85397,-26.6213 -44.32857,-33.3464 -96.45799,-122.06889 -112.10004,-190.79055 -8.84073,-38.84075 -0.21392,-83.07814 20.65384,-105.9108 9.94911,-10.88591 20.60956,-17.11089 35.327843,-20.62908 8.134583,-1.94445 9.537867,-2.90995 9.564374,-6.58059 0.03367,-4.66201 4.272993,-26.78846 8.090343,-42.22618 8.10802,-32.7896 18.12559,-59.40009 34.87951,-92.65335 19.12983,-37.96899 36.92808,-64.33087 62.99537,-93.30562 41.63525,-46.27911 93.87843,-72.25203 145.17843,-72.17606 33.01275,0.0489 62.64967,9.12273 99.96992,30.60747 4.17905,2.40581 8.10817,4.37421 8.73139,4.37421 0.62322,0 6.879,-5.78244 13.90173,-12.84986 7.33655,-7.38322 16.13239,-15.09884 20.6755,-18.13633 10.90673,-7.29216 26.18922,-14.39851 38.09312,-17.71328 9.36913,-2.60894 11.19864,-2.78167 29,-2.73795 16.24382,0.0399 20.11341,0.35643 26.67543,2.18206 33.8087,9.40597 59.56851,32.40124 71.3333,63.67782 5.20112,13.82711 6.63945,21.98028 7.33483,41.57754 l 0.65644,18.5 11,-0.31564 c 12.24795,-0.35145 21.70082,1.12295 33.38661,5.20746 34.40411,12.02518 65.94889,44.98698 79.28436,82.84588 5.62471,15.96834 7.15161,26.21249 6.5228,43.7623 -0.75051,20.94656 -5.5929,36.44004 -16.74289,53.56972 -2.17298,3.33834 -3.95088,6.90697 -3.95088,7.93028 0,1.02331 1.77495,4.59194 3.94432,7.93028 10.00662,15.39867 15.00162,31.26755 15.76028,50.06972 1.10883,27.48067 -7.70268,54.63851 -27.4165,84.5 -35.19473,53.31119 -111.67097,116.55939 -183.7881,151.99845 -20.7468,10.1951 -34.91702,15.9222 -59.5,24.0476 -45.8382,15.1509 -86.27229,21.9644 -130.22156,21.9432 -39.96845,-0.019 -74.48834,-5.3053 -111.1193,-17.016 -6.83555,-2.1853 -13.1169,-3.9732 -13.95854,-3.9732 -0.84164,0 -3.17519,2.2408 -5.18566,4.9796 -4.76969,6.4976 -14.21638,14.9957 -20.42735,18.3762 -10.42769,5.6754 -25.9733,7.8513 -39.69495,5.556 z m 22.38173,-25.4375 c 8.14863,-2.4199 18.14358,-11.1092 16.70612,-14.5238 -0.33584,-0.7978 -4.47582,-4.1461 -9.19996,-7.4407 -33.4877,-23.3543 -74.02403,-77.40498 -104.87738,-139.84243 -22.2948,-45.11765 -30.193785,-72.33828 -32.549149,-112.16742 -0.585453,-9.9 -1.433494,-18.39389 -1.884535,-18.8753 -2.844415,-3.03598 -17.343787,5.13507 -24.044186,13.54998 -9.90705,12.44208 -14.80334,28.52035 -15.63002,51.32532 -0.66348,18.30289 1.30521,30.24844 8.66446,52.5739 16.598098,50.353 48.34699,105.92426 78.9243,138.14415 11.24263,11.8466 21.2983,19.6081 33.70137,26.0127 22.11798,11.421 37.7781,14.9293 50.18898,11.2436 z m 212.93253,-9.9581 c 43.74059,-5.9605 89.82147,-19.7887 129.82048,-38.9569 48.46484,-23.22533 100.67204,-60.59023 140.47262,-100.53685 47.34513,-47.51886 67.42138,-90.74215 59.30478,-127.68057 -1.79771,-8.18128 -9.645,-25.00087 -12.4613,-26.70904 -1.3343,-0.80929 -3.57121,0.65875 -11.5,7.54723 -20.96005,18.20997 -41.79955,33.92943 -60.80558,45.86633 -10.51437,6.60364 -33.35012,18.47466 -34.09876,17.72602 -0.44378,-0.44378 78.82744,-80.48741 94.40495,-95.32482 14.05766,-13.38977 23.40853,-29.74964 26.21476,-45.86419 1.71844,-9.86803 0.67879,-30.11025 -2.03303,-39.58346 -2.87755,-10.05216 -11.78895,-27.8871 -18.23757,-36.5 -24.8091,-33.13548 -61.28303,-48.83389 -88.28825,-37.99933 -6.05182,2.42801 -8.08364,3.96903 -15,11.37668 -16.50859,17.68122 -43.29636,43.94744 -51.5,50.49729 -13.67564,10.91875 -47,32.34019 -47,30.21236 0,-0.32182 5.74915,-6.99805 12.7759,-14.83606 36.3906,-40.59208 65.3738,-77.20446 72.23634,-91.25094 6.16884,-12.6266 7.3134,-18.59787 6.70647,-34.98799 -0.62062,-16.75967 -2.21256,-23.51548 -8.73979,-37.08947 -9.89026,-20.56774 -28.42798,-35.49116 -51.47892,-41.44207 -11.88323,-3.06781 -28.92017,-2.93076 -41.5,0.33386 -5.225,1.35595 -12.10464,3.62275 -15.28808,5.03733 -15.44586,6.86345 -34.14031,22.61922 -45.88863,38.67513 -11.23144,15.34952 -47.16957,42.85446 -73.37451,56.15655 -14.46716,7.34379 -22.66805,10.50428 -35.9811,13.86656 -18.13518,4.58012 -31.93467,5.48858 -60.96768,4.01366 -13.75,-0.69852 -25.1656,-1.42668 -25.368,-1.61813 -0.53536,-0.50641 2.80707,-1.16924 17.368,-3.44419 52.84379,-8.25616 90.15814,-24.26974 128.5424,-55.1644 14.49667,-11.66805 14.97444,-12.55976 8.69194,-16.22247 -18.55352,-10.81675 -42.93138,-20.73693 -59.73434,-24.30793 -11.9898,-2.5481 -41.05212,-2.54298 -53,0.009 -26.47507,5.65564 -52.87697,18.76978 -74.94112,37.22417 -52.35972,43.7935 -97.81259,120.45757 -117.54137,198.2537 -12.46944,49.17047 -13.49816,96.44643 -2.90945,133.70635 6.15777,21.66817 24.24939,61.48704 40.43698,89 8.18961,13.91934 23.44809,37.35762 29.29531,45 24.12859,31.53636 44.58933,51.44099 61.64482,59.96939 19.23088,9.6161 55.96651,19.9941 87.01483,24.5819 26.29255,3.8852 66.14198,4.085 92.7069,0.465 z M 86.86469,964.68606 c -7.53762,-4.08987 -7.51912,-16.92354 0.03,-20.82735 1.51731,-0.78463 9.04719,-2.61627 16.73308,-4.07032 32.68519,-6.18353 53.92304,-12.19752 88.85088,-25.16021 10.9321,-4.0572 21.41695,-7.37673 23.29967,-7.37673 13.46981,0 17.10421,17.89581 4.72131,23.24773 -2.14363,0.92648 -13.57251,5.23025 -25.39751,9.56392 -31.18815,11.42995 -47.85321,16.14473 -80.06832,22.65246 -19.10821,3.86003 -24.04965,4.2057 -28.16911,1.9705 z M 45.52573,910.00085 c -6.7424,-6.17894 -5.02364,-15.69269 3.60735,-19.96761 1.90797,-0.94502 15.54676,-7.57024 30.30842,-14.72273 32.91969,-15.95061 50.70411,-25.70692 101.99123,-55.95111 18.34032,-10.81535 23.00771,-13.10795 26.68581,-13.10795 6.79009,0 11.98767,5.29324 11.97984,12.20034 -0.007,5.77393 -2.94389,8.86455 -15.0967,15.88447 -6.26976,3.62165 -22.3551,12.99243 -35.7452,20.82396 -31.20167,18.24906 -50.73186,28.84174 -75.65436,41.03301 -39.25642,19.20296 -41.48929,19.84424 -48.07639,13.80762 z M 3.60212,848.29742 c -1.1,-0.45499 -3.125,-2.03772 -4.5,-3.51718 -2.0186,-2.17195 -2.5,-3.71797 -2.5,-8.02879 0,-6.78344 1.15214,-8.04499 15.78442,-17.2833 16.84752,-10.63695 39.22411,-26.8539 61.70135,-44.7167 11.07327,-8.8 21.34394,-16.78513 22.82372,-17.74474 5.6655,-3.67395 14.7665,-1.40967 17.78342,4.42441 1.9807,3.83025 1.37968,10.06594 -1.25816,13.05367 -2.71867,3.07926 -38.90817,31.79905 -53.54921,42.49636 -15.28057,11.16457 -43.48199,29.82419 -47.22717,31.24811 -3.15314,1.19882 -6.26819,1.22226 -9.05837,0.0682 z"
       id="path3622" />
  </g>
</svg>
