<?xml version="1.0" encoding="UTF-8" standalone="no"?>
<!-- Created with Inkscape (http://www.inkscape.org/) -->

<svg
   version="1.1"
   id="svg3475"
   width="766.83301"
   height="668.55542"
   viewBox="0 0 766.833 668.55542"
   sodipodi:docname="rock_computer.svg"
   inkscape:version="1.1.2 (b8e25be8, 2022-02-05)"
   xmlns:inkscape="http://www.inkscape.org/namespaces/inkscape"
   xmlns:sodipodi="http://sodipodi.sourceforge.net/DTD/sodipodi-0.dtd"
   xmlns="http://www.w3.org/2000/svg"
   xmlns:svg="http://www.w3.org/2000/svg">
  <defs
     id="defs3479" />
  <sodipodi:namedview
     id="namedview3477"
     pagecolor="#ffffff"
     bordercolor="#666666"
     borderopacity="1.0"
     inkscape:pageshadow="2"
     inkscape:pageopacity="0.0"
     inkscape:pagecheckerboard="true"
     showgrid="false"
     fit-margin-top="0.3"
     fit-margin-left="0"
     fit-margin-right="0"
     fit-margin-bottom="0"
     inkscape:zoom="0.40588235"
     inkscape:cx="592.53624"
     inkscape:cy="342.46377"
     inkscape:window-width="1512"
     inkscape:window-height="916"
     inkscape:window-x="702"
     inkscape:window-y="1118"
     inkscape:window-maximized="0"
     inkscape:current-layer="g3481"
     borderlayer="false"
     units="mm" />
  <g
     inkscape:groupmode="layer"
     inkscape:label="Image"
     id="g3481"
     transform="translate(-52.166753,-223.44573)">
    <path
       class="rock-svg"
       style="fill:white"
       d="m 644.59995,891.10025 c 15.98623,-2.67413 43.66054,-15.192 58.85397,-26.62132 44.32857,-33.34635 96.45799,-122.06887 112.10004,-190.79053 8.84073,-38.84075 0.21392,-83.07814 -20.65384,-105.9108 -9.94911,-10.88591 -20.60956,-17.11089 -35.32784,-20.62908 -8.13459,-1.94445 -9.53787,-2.90995 -9.56438,-6.58059 -0.0337,-4.66201 -4.27299,-26.78846 -8.09034,-42.22618 -8.10802,-32.7896 -18.12559,-59.40009 -34.87951,-92.65335 -19.12983,-37.96899 -36.92808,-64.33087 -62.99537,-93.30562 -41.63525,-46.27911 -93.87843,-72.25203 -145.17843,-72.17606 -33.01275,0.0489 -62.64967,9.12273 -99.96992,30.60747 -4.17905,2.40581 -8.10817,4.37421 -8.73139,4.37421 -0.62322,0 -6.879,-5.78244 -13.90173,-12.84986 -7.33655,-7.38322 -16.13239,-15.09884 -20.6755,-18.13633 -10.90673,-7.29216 -26.18922,-14.39851 -38.09312,-17.71328 -9.36913,-2.60894 -11.19864,-2.78167 -29,-2.73795 -16.24382,0.0399 -20.11341,0.35643 -26.67543,2.18206 -33.8087,9.40597 -59.56851,32.40124 -71.3333,63.67782 -5.20112,13.82711 -6.63945,21.98028 -7.33483,41.57754 l -0.65644,18.5 -11,-0.31564 c -12.24795,-0.35145 -21.70082,1.12295 -33.38661,5.20746 -34.40411,12.02518 -65.948891,44.98698 -79.284361,82.84588 -5.62471,15.96834 -7.15161,26.21249 -6.5228,43.7623 0.75051,20.94656 5.5929,36.44004 16.74289,53.56972 2.17298,3.33834 3.95088,6.90697 3.95088,7.93028 0,1.02331 -1.77495,4.59194 -3.94432,7.93028 -10.00662,15.39867 -15.00162,31.26755 -15.76028,50.06972 -1.10883,27.48067 7.70268,54.63851 27.4165,84.5 35.194731,53.31119 111.670971,116.55939 183.788101,151.99841 20.7468,10.19516 34.91702,15.92224 59.5,24.04766 45.8382,15.15092 86.27229,21.96434 130.22156,21.94322 39.96845,-0.0192 74.48834,-5.30534 111.1193,-17.01604 6.83555,-2.18529 13.1169,-3.97325 13.95854,-3.97325 0.84164,0 3.17519,2.24084 5.18566,4.97965 4.76969,6.49762 14.21638,14.99573 20.42735,18.37616 10.42769,5.67546 25.9733,7.85136 39.69495,5.55604 z m -22.38173,-25.43749 c -8.14863,-2.41988 -18.14358,-11.10922 -16.70612,-14.52386 0.33584,-0.79777 4.47582,-4.14608 9.19996,-7.44069 33.4877,-23.35422 74.02403,-77.40494 104.87738,-139.84239 22.2948,-45.11765 30.19378,-72.33828 32.54915,-112.16742 0.58545,-9.9 1.43349,-18.39389 1.88453,-18.8753 2.84442,-3.03598 17.34379,5.13507 24.04419,13.54998 9.90705,12.44208 14.80334,28.52035 15.63002,51.32532 0.66348,18.30289 -1.30521,30.24844 -8.66446,52.5739 -16.5981,50.353 -48.34699,105.92426 -78.9243,138.14414 -11.24263,11.84657 -21.2983,19.60812 -33.70137,26.01266 -22.11798,11.42102 -37.7781,14.9293 -50.18898,11.24366 z M 409.28569,855.70468 C 365.5451,849.7441 319.46422,835.91599 279.46521,816.7477 231.00037,793.52242 178.79317,756.15752 138.99259,716.2109 91.647459,668.69204 71.571209,625.46875 79.687809,588.53033 c 1.79771,-8.18128 9.645,-25.00087 12.4613,-26.70904 1.3343,-0.80929 3.57121,0.65875 11.500001,7.54723 20.96005,18.20997 41.79955,33.92943 60.80558,45.86633 10.51437,6.60364 33.35012,18.47466 34.09876,17.72602 0.44378,-0.44378 -78.82744,-80.48741 -94.40495,-95.32482 -14.057661,-13.38977 -23.408531,-29.74964 -26.214761,-45.86419 -1.71844,-9.86803 -0.67879,-30.11025 2.03303,-39.58346 2.87755,-10.05216 11.78895,-27.8871 18.23757,-36.5 24.809101,-33.13548 61.283031,-48.83389 88.288251,-37.99933 6.05182,2.42801 8.08364,3.96903 15,11.37668 16.50859,17.68122 43.29636,43.94744 51.5,50.49729 13.67564,10.91875 47,32.34019 47,30.21236 0,-0.32182 -5.74915,-6.99805 -12.7759,-14.83606 -36.3906,-40.59208 -65.3738,-77.20446 -72.23634,-91.25094 -6.16884,-12.6266 -7.3134,-18.59787 -6.70647,-34.98799 0.62062,-16.75967 2.21256,-23.51548 8.73979,-37.08947 9.89026,-20.56774 28.42798,-35.49116 51.47892,-41.44207 11.88323,-3.06781 28.92017,-2.93076 41.5,0.33386 5.225,1.35595 12.10464,3.62275 15.28808,5.03733 15.44586,6.86345 34.14031,22.61922 45.88863,38.67513 11.23144,15.34952 47.16957,42.85446 73.37451,56.15655 14.46716,7.34379 22.66805,10.50428 35.9811,13.86656 18.13518,4.58012 31.93467,5.48858 60.96768,4.01366 13.75,-0.69852 25.1656,-1.42668 25.368,-1.61813 0.53536,-0.50641 -2.80707,-1.16924 -17.368,-3.44419 -52.84379,-8.25616 -90.15814,-24.26974 -128.5424,-55.1644 -14.49667,-11.66805 -14.97444,-12.55976 -8.69194,-16.22247 18.55352,-10.81675 42.93138,-20.73693 59.73434,-24.30793 11.9898,-2.5481 41.05212,-2.54298 53,0.009 26.47507,5.65564 52.87697,18.76978 74.94112,37.22417 52.35972,43.7935 97.81259,120.45757 117.54137,198.2537 12.46944,49.17047 13.49816,96.44643 2.90945,133.70635 -6.15777,21.66817 -24.24939,61.48704 -40.43698,89 -8.18961,13.91934 -23.44809,37.35762 -29.29531,45 -24.12859,31.53636 -44.58933,51.44099 -61.64482,59.96937 -19.23088,9.61616 -55.96651,19.99409 -87.01483,24.58195 -26.29255,3.88513 -66.14198,4.08499 -92.7069,0.46496 z m 176.94433,-84.08167 c 7.53762,-4.08987 7.51912,-16.92354 -0.03,-20.82735 -1.51731,-0.78463 -9.04719,-2.61627 -16.73308,-4.07032 -32.68519,-6.18353 -53.92304,-12.19752 -88.85088,-25.16021 -10.9321,-4.0572 -21.41695,-7.37673 -23.29967,-7.37673 -13.46981,0 -17.10421,17.89581 -4.72131,23.24773 2.14363,0.92648 13.57251,5.23025 25.39751,9.56392 31.18815,11.42995 47.85321,16.14473 80.06832,22.65246 19.10821,3.86003 24.04965,4.2057 28.16911,1.9705 z m 41.33896,-54.68521 c 6.7424,-6.17894 5.02364,-15.69269 -3.60735,-19.96761 -1.90797,-0.94502 -15.54676,-7.57024 -30.30842,-14.72273 C 560.73352,666.29685 542.9491,656.54054 491.66198,626.29635 473.32166,615.481 468.65427,613.1884 464.97617,613.1884 c -6.79009,0 -11.98767,5.29324 -11.97984,12.20034 0.007,5.77393 2.94389,8.86455 15.0967,15.88447 6.26976,3.62165 22.3551,12.99243 35.7452,20.82396 31.20167,18.24906 50.73186,28.84174 75.65436,41.03301 39.25642,19.20296 41.48929,19.84424 48.07639,13.80762 z m 41.92361,-61.70343 c 1.1,-0.45499 3.125,-2.03772 4.5,-3.51718 2.0186,-2.17195 2.5,-3.71797 2.5,-8.02879 0,-6.78344 -1.15214,-8.04499 -15.78442,-17.2833 -16.84752,-10.63695 -39.22411,-26.8539 -61.70135,-44.7167 -11.07327,-8.8 -21.34394,-16.78513 -22.82372,-17.74474 -5.6655,-3.67395 -14.7665,-1.40967 -17.78342,4.42441 -1.9807,3.83025 -1.37968,10.06594 1.25816,13.05367 2.71867,3.07926 38.90817,31.79905 53.54921,42.49636 15.28057,11.16457 43.48199,29.82419 47.22717,31.24811 3.15314,1.19882 6.26819,1.22226 9.05837,0.0682 z"
       id="path3622" />
  </g>
</svg>
