<?xml version="1.0" encoding="UTF-8" standalone="no"?>
<!-- Created with Inkscape (http://www.inkscape.org/) -->

<svg class="scissors-svg"
   version="1.1"
   id="svg5406"
   width="837.73193"
   height="689.57104"
   viewBox="0 0 837.73193 689.57104"
   sodipodi:docname="scissors.svg"
   inkscape:version="1.1.2 (b8e25be8, 2022-02-05)"
   xmlns:inkscape="http://www.inkscape.org/namespaces/inkscape"
   xmlns:sodipodi="http://sodipodi.sourceforge.net/DTD/sodipodi-0.dtd"
   xmlns="http://www.w3.org/2000/svg"
   xmlns:svg="http://www.w3.org/2000/svg">
  <defs
     id="defs5410" />
  <sodipodi:namedview
     id="namedview5408"
     pagecolor="#ffffff"
     bordercolor="#666666"
     borderopacity="1.0"
     inkscape:pageshadow="2"
     inkscape:pageopacity="0.0"
     inkscape:pagecheckerboard="0"
     showgrid="false"
     fit-margin-top="0.3"
     fit-margin-left="0"
     fit-margin-right="0"
     fit-margin-bottom="0"
     inkscape:zoom="0.81176471"
     inkscape:cx="408.36957"
     inkscape:cy="226.66667"
     inkscape:window-width="1512"
     inkscape:window-height="916"
     inkscape:window-x="702"
     inkscape:window-y="1118"
     inkscape:window-maximized="0"
     inkscape:current-layer="g5412" />
  <g
     inkscape:groupmode="layer"
     inkscape:label="Image"
     id="g5412"
     transform="translate(-16.586877,-197.94849)">
    <path
       style="fill:#0b0b0b"
       d="M 156.38753,886.40438 C 143.03542,883.78524 122.02708,873.94776 109.2905,864.35046 69.268681,834.19312 21.517932,744.95078 16.792136,691.47841 c -0.814134,-9.21192 0.879589,-27.12363 3.560336,-37.65179 6.485915,-25.47229 23.33179,-43.82051 45.156011,-49.18309 l 7.310358,-1.79628 0.807993,-4.92725 c 11.926542,-72.72962 47.792696,-143.43331 96.852456,-190.92725 16.31918,-15.79833 28.20153,-24.44484 45.33955,-32.99256 23.53117,-11.73635 40.39035,-15.91138 64,-15.84905 27.00858,0.0713 49.89331,6.94973 78.93606,23.72567 6.81713,3.93777 10.61531,5.56888 12.09994,5.19626 3.14899,-0.79034 31.98556,-31.32699 71.8663,-76.10321 39.92793,-44.8292 69.46624,-74.7087 86.71076,-87.71236 13.66515,-10.30454 32.92727,-19.19526 49.38694,-22.79528 14.98257,-3.27694 36.18006,-2.88099 51.21026,0.95656 22.57205,5.76315 42.45175,19.09841 53.36695,35.79844 6.56798,10.04887 9.01612,17.61804 9.63046,29.77553 0.61381,12.14682 -1.01492,19.36929 -6.99077,31 -3.71041,7.22151 -6.65478,10.57876 -30.25712,34.5 -14.3807,14.575 -28.59268,29.2 -31.58218,32.5 -20.51781,22.64886 -56.8776,65.16669 -56.8776,66.51062 0,1.33498 -0.053,1.34802 6.62557,-1.6306 16.99614,-7.58022 45.87301,-19.80401 69.87443,-29.57835 14.85,-6.04751 35.775,-14.76192 46.5,-19.36537 27.23389,-11.68947 32.6935,-12.93804 56.5,-12.92108 17.68113,0.0126 19.69414,0.20629 29,2.79026 20.61467,5.72412 36.74264,14.50493 50.66778,27.58587 18.42342,17.30652 27.83222,36.25734 27.83222,56.05851 0,15.20734 -5.34792,28.00201 -16.78675,40.16155 -10.00575,10.63618 -17.80062,15.54581 -43.02634,27.10035 -68.49085,31.37194 -129.25467,63.19824 -166.93691,87.43664 -8.06494,5.18763 -8.25,5.39603 -8.25,9.29088 0,6.7072 -3.81688,34.16156 -6.54711,47.09264 -13.27843,62.88996 -42.71549,111.65381 -87.71038,145.29625 -38.94825,29.12141 -91.00061,52.36319 -142.24251,63.5124 -56.83108,12.36531 -112.20847,9.56523 -164.47298,-8.31633 l -7.47298,-2.55677 -6.71535,7.35999 c -12.65232,13.86688 -29.1264,19.24127 -47.77,15.58417 z m 22.43928,-24.16013 c 4.06709,-2.10716 8.49203,-6.33615 8.49203,-8.11597 0,-0.80299 -2.98394,-3.58927 -6.63098,-6.19174 C 151.00198,826.75313 111.15286,769.24768 88.485413,714.88106 76.63585,686.46053 72.58121,669.34999 71.607198,643.65514 c -0.433463,-11.43495 -0.92058,-15.46777 -1.914388,-15.84913 -2.520185,-0.96708 -10.29084,3.82964 -15.741536,9.71704 -9.320277,10.06701 -14.128187,26.17076 -14.023197,46.9697 0.04152,8.22583 0.678156,14.06239 2.236071,20.5 12.774814,52.788 51.097536,119.05811 82.007592,141.8128 7.78659,5.73216 24.88812,14.17479 32.69406,16.14029 7.12298,1.79355 17.80368,1.45233 21.96101,-0.70159 z m 155.64621,-4.21014 c 38.72545,-1.85589 87.75655,-15.80239 128.84582,-36.64916 29.44015,-14.93655 48.14564,-27.48675 65.05089,-43.645 18.43092,-17.61653 30.62271,-34.39706 41.95584,-57.7472 10.6791,-22.0026 17.5048,-43.74528 22.01492,-70.12662 2.32694,-13.61119 2.53575,-18.80187 0.72835,-18.1063 -0.6875,0.26458 -11.01207,7.22771 -22.94349,15.47362 -37.70431,26.05777 -56.75177,38.64737 -57.43617,37.96298 -2.18787,-2.18788 23.67255,-33.02283 40.97735,-48.8598 26.30788,-24.07637 44.53938,-37.15028 84.15231,-60.34606 37.0199,-21.67741 94.00334,-51.08229 134.5,-69.40536 31.44319,-14.22675 39.58239,-18.69968 46.66667,-25.64585 7.92527,-7.77078 11.59399,-15.21173 12.15539,-24.65374 1.6675,-28.04526 -30.98749,-58.69898 -69.04942,-64.81773 -9.74637,-1.5668 -31.05234,-0.73663 -39.27264,1.53023 -3.3,0.91003 -15,5.49033 -26,10.17845 -11,4.68813 -29.45,12.3509 -41,17.02838 -65.41115,26.49002 -121.51967,52.28795 -134.43587,61.81179 -6.95275,5.12666 -48.16234,45.78401 -65.34418,64.46853 -5.81253,6.32088 -10.85517,11.20559 -11.20586,10.8549 -0.85,-0.85 8.21839,-18.80488 15.80355,-31.29007 12.98657,-21.37595 27.75277,-40.792 45.6745,-60.05735 5.62806,-6.05 19.93557,-22.475 31.79448,-36.5 56.37198,-66.66865 70.04524,-81.95479 100.27395,-112.10216 21.55333,-21.49533 25.09607,-25.47059 28.05399,-31.47897 3.12869,-6.35527 3.38544,-7.59889 3.38544,-16.39784 0,-8.97889 -0.19929,-9.89041 -3.5,-16.00804 -8.12882,-15.0662 -24.94868,-26.35816 -45.63345,-30.63586 -10.9731,-2.26929 -32.90637,-1.44575 -43.36655,1.6283 -10.92606,3.21096 -24.43775,9.9727 -34.06956,17.04965 -15.93468,11.70798 -51.50568,48.74885 -109.42331,113.94492 -18.51239,20.83882 -57.75616,59.61659 -69.51182,68.6864 -29.46104,22.72998 -52.97441,34.50955 -77.38068,38.76565 -5.3286,0.92923 -14.81164,1.54795 -23.7252,1.54795 -17.29918,0 -44.99409,-1.80945 -46.26968,-3.02304 -0.97802,-0.93047 -0.0852,-1.11246 19.88025,-4.05223 30.13983,-4.43787 46.80635,-9.29056 68.02114,-19.80531 14.14739,-7.01191 32.83061,-19.27926 41.97886,-27.5632 l 5,-4.52761 -2.5,-2.12948 c -7.07294,-6.02468 -33.64083,-17.21306 -48.66573,-20.4943 -16.21007,-3.54007 -38.56025,-2.04785 -56.33427,3.7612 -43.52133,14.22398 -86.01242,57.64178 -116.7869,119.33397 -21.49216,43.08434 -31.905045,82.13948 -32.927581,123.5 -0.440942,17.83563 -0.2312,22.12461 1.613782,33 7.642179,45.0474 46.084309,116.16988 82.872879,153.32464 15.71072,15.8671 23.45769,20.63245 45.72782,28.1283 29.92173,10.07129 68.67001,16.24511 93.5,14.89751 3.025,-0.16418 10.29438,-0.52827 16.15418,-0.80909 z m -131.15756,-69.3909 c -5.25702,-5.25701 -4.64008,-13.76168 1.27419,-17.56526 1.22605,-0.7885 7.62919,-2.38939 14.22919,-3.55754 26.99845,-4.77852 40.63862,-8.45172 70.57976,-19.0066 18.87366,-6.65335 20.68161,-7.10952 24.10837,-6.08284 5.0769,1.52108 7.81187,5.26049 7.81187,10.68086 0,7.50394 -2.56096,9.2549 -25.34166,17.32637 -24.25333,8.59325 -39.79411,12.94075 -62.65834,17.52856 -22.04169,4.42277 -26.16412,4.51571 -30.00338,0.67645 z m -31.59662,-43.55046 c -3.81588,-3.81588 -4.51173,-8.54947 -1.97727,-13.45058 1.6283,-3.14878 1.53983,-3.10007 27.41298,-15.09199 22.18259,-10.28138 39.18042,-19.2984 75.16429,-39.87318 14.025,-8.01919 27.04037,-15.11248 28.92304,-15.76287 6.75557,-2.33377 13.83591,2.08465 14.70417,9.17604 0.87262,7.12693 -0.74383,8.45564 -31.71195,26.06678 -46.05455,26.1906 -57.1999,32.03934 -85.38185,44.80584 -19.4192,8.79695 -22.06388,9.19949 -27.13341,4.12996 z m -31.75745,-49.63838 c -4.04313,-1.19722 -6.48617,-3.70764 -7.76637,-7.98056 -1.66985,-5.57345 0.70942,-9.68761 8.39965,-14.52438 17.00106,-10.69283 36.98387,-24.73518 53.22417,-37.40176 20.96059,-16.34816 24.45227,-18.47406 28.95521,-17.6293 6.60229,1.2386 11.10308,9.39812 8.56453,15.52673 -1.56301,3.77343 -36.73727,31.05771 -60.42499,46.87099 -22.76697,15.19861 -25.77694,16.67075 -30.9522,15.13828 z"
       id="path5532" />
  </g>
</svg>
